<svg width="14" height="8" viewBox="0 0 14 8" fill="none" xmlns="http://www.w3.org/2000/svg">
<path opacity="0.5" d="M13.6918 0.305919C13.4945 0.110039 13.2268 -3.37976e-08 12.9477 -4.5997e-08C12.6686 -5.81963e-08 12.401 0.110039 12.2036 0.305919L6.99365 5.47795L1.78371 0.305919C1.5852 0.11559 1.31933 0.0102742 1.04337 0.0126549C0.767402 0.0150355 0.503418 0.124922 0.308273 0.318646C0.113129 0.512371 0.00243851 0.774433 4.00085e-05 1.04839C-0.00235754 1.32235 0.103729 1.58628 0.295453 1.78334L6.24952 7.69408C6.44689 7.88996 6.71456 8 6.99365 8C7.27273 8 7.5404 7.88996 7.73777 7.69408L13.6918 1.78334C13.8892 1.5874 14 1.32169 14 1.04463C14 0.767573 13.8892 0.501858 13.6918 0.305919Z" fill="#263242"/>
</svg>
