<svg width="18" height="18" viewBox="0 0 18 18" fill="none" xmlns="http://www.w3.org/2000/svg">
<path d="M17.5763 15.9394C17.8106 16.1737 17.8106 16.5536 17.5763 16.7879L16.7884 17.5758C16.5541 17.8101 16.1742 17.8101 15.9399 17.5758L0.424601 2.06063C0.190285 1.82631 0.190285 1.44642 0.424601 1.2121L1.21245 0.424261C1.44677 0.189948 1.82667 0.189948 2.06099 0.424262L17.5763 15.9394Z" fill="white"/>
<path d="M15.9396 0.42438C16.1739 0.190067 16.5538 0.190067 16.7881 0.424381L17.576 1.21222C17.8103 1.44654 17.8103 1.82643 17.576 2.06075L2.06065 17.5759C1.82633 17.8102 1.44643 17.8102 1.21212 17.5759L0.424266 16.788C0.18995 16.5537 0.189951 16.1738 0.424267 15.9395L15.9396 0.42438Z" fill="white"/>
</svg>
