<svg width="30" height="30" viewBox="0 0 30 30" fill="none" xmlns="http://www.w3.org/2000/svg">
<rect y="-0.000244141" width="30" height="30" rx="10" fill="url(#paint0_linear_734_3500)"/>
<path d="M11.3059 8.30792C11.11 8.50529 11 8.77296 11 9.05204C11 9.33113 11.11 9.5988 11.3059 9.79617L16.4779 15.0061L11.3059 20.2161C11.1156 20.4146 11.0103 20.6804 11.0127 20.9564C11.015 21.2324 11.1249 21.4963 11.3186 21.6915C11.5124 21.8866 11.7744 21.9973 12.0484 21.9997C12.3223 22.0021 12.5863 21.896 12.7833 21.7043L18.6941 15.7502C18.89 15.5529 19 15.2852 19 15.0061C19 14.727 18.89 14.4594 18.6941 14.262L12.7833 8.30792C12.5874 8.1106 12.3217 7.99976 12.0446 7.99976C11.7676 7.99976 11.5019 8.1106 11.3059 8.30792Z" fill="white"/>
<defs>
<linearGradient id="paint0_linear_734_3500" x1="-5.14286" y1="-4.28595" x2="36.3628" y2="-1.75546" gradientUnits="userSpaceOnUse">
<stop stop-color="#E17A0A"/>
<stop offset="1" stop-color="#EE9A1B"/>
</linearGradient>
</defs>
</svg>
