<svg width="18" height="18" viewBox="0 0 18 18" fill="none" xmlns="http://www.w3.org/2000/svg">
<g clip-path="url(#clip0_779_659)">
<path fill-rule="evenodd" clip-rule="evenodd" d="M18 9C18 11.3869 17.0518 13.6761 15.364 15.364C13.6761 17.0518 11.3869 18 9 18C6.61305 18 4.32387 17.0518 2.63604 15.364C0.948211 13.6761 0 11.3869 0 9C0 6.61305 0.948211 4.32387 2.63604 2.63604C4.32387 0.948211 6.61305 0 9 0C11.3869 0 13.6761 0.948211 15.364 2.63604C17.0518 4.32387 18 6.61305 18 9V9ZM10.125 5.625C10.125 5.92337 10.0065 6.20952 9.7955 6.4205C9.58452 6.63147 9.29837 6.75 9 6.75C8.70163 6.75 8.41548 6.63147 8.2045 6.4205C7.99353 6.20952 7.875 5.92337 7.875 5.625C7.875 5.32663 7.99353 5.04048 8.2045 4.8295C8.41548 4.61853 8.70163 4.5 9 4.5C9.29837 4.5 9.58452 4.61853 9.7955 4.8295C10.0065 5.04048 10.125 5.32663 10.125 5.625V5.625ZM9 7.875C8.70163 7.875 8.41548 7.99353 8.2045 8.2045C7.99353 8.41548 7.875 8.70163 7.875 9V12.375C7.875 12.6734 7.99353 12.9595 8.2045 13.1705C8.41548 13.3815 8.70163 13.5 9 13.5C9.29837 13.5 9.58452 13.3815 9.7955 13.1705C10.0065 12.9595 10.125 12.6734 10.125 12.375V9C10.125 8.70163 10.0065 8.41548 9.7955 8.2045C9.58452 7.99353 9.29837 7.875 9 7.875Z" fill="url(#paint0_linear_779_659)"/>
</g>
<defs>
<linearGradient id="paint0_linear_779_659" x1="-3.08571" y1="-2.57142" x2="21.8177" y2="-1.05313" gradientUnits="userSpaceOnUse">
<stop stop-color="#E17A0A"/>
<stop offset="1" stop-color="#EE9A1B"/>
</linearGradient>
<clipPath id="clip0_779_659">
<rect width="18" height="18" fill="white"/>
</clipPath>
</defs>
</svg>
