<svg width="30" height="30" viewBox="0 0 30 30" fill="none" xmlns="http://www.w3.org/2000/svg">
<rect width="30" height="30" rx="10" fill="url(#paint0_linear_767_3441)"/>
<path d="M11.3059 8.30816C11.11 8.50554 11 8.7732 11 9.05229C11 9.33138 11.11 9.59904 11.3059 9.79641L16.4779 15.0064L11.3059 20.2163C11.1156 20.4148 11.0103 20.6807 11.0127 20.9566C11.015 21.2326 11.1249 21.4966 11.3186 21.6917C11.5124 21.8869 11.7744 21.9976 12.0484 22C12.3223 22.0024 12.5863 21.8963 12.7833 21.7045L18.6941 15.7505C18.89 15.5531 19 15.2854 19 15.0064C19 14.7273 18.89 14.4596 18.6941 14.2622L12.7833 8.30816C12.5874 8.11085 12.3217 8 12.0446 8C11.7676 8 11.5019 8.11085 11.3059 8.30816V8.30816Z" fill="white"/>
<defs>
<linearGradient id="paint0_linear_767_3441" x1="-5.14286" y1="-4.28571" x2="36.3628" y2="-1.75522" gradientUnits="userSpaceOnUse">
<stop stop-color="#273343"/>
<stop offset="1" stop-color="#68727E"/>
</linearGradient>
</defs>
</svg>
