<svg width="140" height="47" viewBox="0 0 140 47" fill="none" xmlns="http://www.w3.org/2000/svg">
<g clip-path="url(#clip0_721_6196)">
<path d="M140 0H78.4121V46.9966H140V0Z" fill="#E95957"/>
<path d="M78.4158 0.00366211H0V47.0003H78.4158V0.00366211Z" fill="black"/>
<path d="M28.2527 25.926C29.4414 25.4649 30.4509 24.6329 31.1324 23.5525C31.8163 22.4362 32.1199 21.1271 31.9976 19.8226C31.8771 18.5042 31.3768 17.2495 30.5578 16.2114C28.3575 13.4682 24.7005 13.631 24.278 13.6547L16.2441 13.5835V31.7616H20.4757V26.7364H24.3355L27.7627 31.7921H32.2579L28.2527 25.926ZM26.9718 22.3589C26.0254 23.3965 24.5653 23.3422 24.1935 23.3558H20.4284C20.4284 21.2603 20.434 19.167 20.4453 17.076H24.4572C25.0363 17.0584 25.6098 17.194 26.1201 17.4694C26.4998 17.7016 26.8418 17.9909 27.134 18.3272C27.5681 18.9175 27.7886 19.6387 27.7591 20.3717C27.7296 21.1046 27.4519 21.8056 26.9718 22.3589Z" fill="white"/>
<path d="M46.6922 19.2904C45.2489 18.1219 43.4316 17.5194 41.5785 17.595C40.6828 17.595 38.3372 17.639 36.3262 19.4429C35.5779 20.1359 34.9775 20.974 34.5615 21.9066C34.1456 22.8391 33.9226 23.8467 33.9062 24.8682C33.9263 26.7491 34.6613 28.5514 35.9612 29.907C38.1006 32.0839 40.862 32.0534 41.6258 32.0432C42.3018 32.0432 45.3234 31.9991 47.4628 29.5577C48.5862 28.2521 49.2176 26.5927 49.2474 24.8682C49.2337 23.811 48.9992 22.7683 48.5591 21.8076C48.119 20.8468 47.483 19.9893 46.6922 19.2904V19.2904ZM41.5717 28.6897C39.5911 28.6897 37.9891 26.9536 37.9891 24.8106C37.9891 22.6676 39.5911 20.9281 41.5717 20.9281C43.5523 20.9281 45.151 22.6676 45.151 24.8106C45.151 26.9536 43.5557 28.6897 41.5717 28.6897Z" fill="white"/>
<path d="M62.6381 18.8189C61.8311 18.4475 60.987 18.1633 60.1201 17.9712C59.0267 17.7363 57.9084 17.6383 56.7909 17.6796C56.1171 17.6957 55.4466 17.7809 54.7901 17.9339C54.3541 18.0324 53.9294 18.1756 53.5226 18.3612C52.7404 18.6768 52.0623 19.2067 51.5657 19.8904C51.1197 20.5544 50.8701 21.3314 50.8458 22.1317C50.7905 22.8063 50.9352 23.4823 51.2615 24.0747C51.5869 24.5931 52.0381 25.0201 52.5729 25.3157C53.1008 25.622 53.67 25.8504 54.2628 25.9939C55.069 26.1982 55.8875 26.35 56.7132 26.4482C58.1868 26.672 58.8391 26.7365 59.0791 27.2146C59.1673 27.3978 59.2002 27.6028 59.1737 27.8046C59.113 28.113 58.9348 28.3855 58.6769 28.5641C58.3465 28.7832 57.9638 28.9096 57.5683 28.9303C57.0073 29.0017 56.4395 29.0017 55.8784 28.9303C55.3974 28.8771 54.9208 28.7899 54.4521 28.6692C54.0895 28.5821 53.7337 28.4688 53.3874 28.3301C53.1023 28.2091 52.8237 28.0733 52.5526 27.9232C52.2755 27.774 52.0456 27.6384 51.8767 27.5333L50.5078 30.4833C52.2096 31.4139 54.1009 31.9416 56.0372 32.0261C57.2236 32.0736 59.3258 32.1278 61.2084 30.8732C61.8416 30.4843 62.3624 29.9361 62.7192 29.283C63.1544 28.4305 63.2522 27.4446 62.993 26.5228C62.4454 24.7732 60.6271 24.1221 60.1133 23.9356C59.6423 23.7875 59.1611 23.6741 58.6735 23.5966C57.9773 23.4609 57.3757 23.3863 56.3076 23.1625C55.7229 23.0405 55.1754 22.915 54.8678 22.4844C54.7368 22.3322 54.6646 22.1379 54.6646 21.9368C54.6646 21.7357 54.7368 21.5413 54.8678 21.3891C55.2971 20.7924 56.5307 20.711 56.943 20.6805C57.9193 20.6213 58.8977 20.755 59.8227 21.0738C60.3185 21.2412 60.7964 21.4581 61.249 21.7214L62.6381 18.8189Z" fill="white"/>
<path d="M73.5261 18.1849H70.0719V14.7466H66.0398V18.1849H63.9375V21.3315H66.0398L66.06 27.0959C66.007 28.3347 66.4264 29.5472 67.2329 30.4867C67.6569 30.9316 68.1646 31.2877 68.7267 31.5345C69.7184 31.9831 70.8158 32.1429 71.8937 31.9956C72.8485 31.8954 73.7707 31.5901 74.5975 31.1004C74.2156 30.1646 73.8337 29.2253 73.4551 28.2895C73.2861 28.4034 73.1074 28.5021 72.9211 28.5845C72.6542 28.7142 72.3674 28.7979 72.0728 28.832C71.6668 28.8729 71.2582 28.7865 70.9034 28.5845C70.0854 28.0826 70.0618 27.001 70.0618 26.9162C70.0618 25.0535 70.0697 23.1897 70.0854 21.3247H73.5396L73.5261 18.1849Z" fill="white"/>
<path d="M123.574 18.1849H120.117V14.7466H116.085V18.1849H113.982V21.3315H116.085L116.105 27.0959C116.054 28.335 116.474 29.5473 117.281 30.4867C117.703 30.9321 118.21 31.2883 118.772 31.5345C119.764 31.9832 120.863 32.143 121.942 31.9956C122.891 31.8942 123.808 31.5888 124.629 31.1005C124.247 30.1646 123.868 29.2253 123.487 28.2895C123.318 28.4034 123.139 28.5021 122.953 28.5845C122.686 28.7147 122.399 28.7984 122.104 28.832C121.699 28.8731 121.292 28.7866 120.938 28.5845C120.12 28.0826 120.097 27.001 120.097 26.9162L120.117 21.3248H123.574V18.1849Z" fill="white"/>
<path d="M94.1757 13.675H90.0557L82.0488 31.704L86.3108 31.7616L87.896 27.8351H96.2205L97.8902 31.7345H102.267L94.1757 13.675ZM89.2276 24.7121L92.0498 17.8084L94.9734 24.7121H89.2276Z" fill="white"/>
<path d="M107.886 31.7346H103.854V17.8662H107.727V19.6803C108.082 19.2395 108.506 18.8584 108.981 18.5511C110.008 17.9067 111.213 17.6085 112.421 17.7V21.2909C111.964 21.2177 111.497 21.2177 111.039 21.2909C110.099 21.4046 109.235 21.868 108.619 22.5896C108.115 23.2469 107.856 24.0599 107.886 24.8886V31.7346Z" fill="white"/>
</g>
<defs>
<clipPath id="clip0_721_6196">
<rect width="140" height="47" fill="white"/>
</clipPath>
</defs>
</svg>
