<svg width="40" height="40" viewBox="0 0 40 40" fill="none" xmlns="http://www.w3.org/2000/svg">
<rect x="1" y="1" width="38" height="38" rx="9" stroke="url(#paint0_linear_734_3488)" stroke-width="2"/>
<path d="M16.3059 13.3082C16.11 13.5055 16 13.7732 16 14.0523C16 14.3314 16.11 14.599 16.3059 14.7964L21.4779 20.0064L16.3059 25.2163C16.1156 25.4148 16.0103 25.6807 16.0127 25.9566C16.015 26.2326 16.1249 26.4966 16.3186 26.6917C16.5124 26.8869 16.7744 26.9976 17.0484 27C17.3223 27.0024 17.5863 26.8963 17.7833 26.7045L23.6941 20.7505C23.89 20.5531 24 20.2854 24 20.0064C24 19.7273 23.89 19.4596 23.6941 19.2622L17.7833 13.3082C17.5874 13.1108 17.3217 13 17.0446 13C16.7676 13 16.5019 13.1108 16.3059 13.3082V13.3082Z" fill="url(#paint1_linear_734_3488)"/>
<defs>
<linearGradient id="paint0_linear_734_3488" x1="-6.85714" y1="-5.71427" x2="48.4838" y2="-2.34029" gradientUnits="userSpaceOnUse">
<stop stop-color="#E17A0A"/>
<stop offset="1" stop-color="#EE9A1B"/>
</linearGradient>
<linearGradient id="paint1_linear_734_3488" x1="14.6286" y1="11" x2="25.7244" y2="11.3866" gradientUnits="userSpaceOnUse">
<stop stop-color="#E17A0A"/>
<stop offset="1" stop-color="#EE9A1B"/>
</linearGradient>
</defs>
</svg>
