<svg width="30" height="30" viewBox="0 0 30 30" fill="none" xmlns="http://www.w3.org/2000/svg">
<rect width="30" height="30" rx="10" fill="url(#paint0_linear_762_651)"/>
<path d="M9.832 21.24C8.936 21.24 8.15467 21.016 7.488 20.568C6.82133 20.12 6.304 19.464 5.936 18.6C5.568 17.736 5.384 16.68 5.384 15.432C5.384 14.136 5.56533 13.0533 5.928 12.184C6.296 11.3093 6.81333 10.6533 7.48 10.216C8.14667 9.77867 8.93067 9.56 9.832 9.56C10.728 9.56 11.5093 9.776 12.176 10.208C12.848 10.64 13.368 11.2907 13.736 12.16C14.1093 13.0293 14.296 14.12 14.296 15.432C14.296 16.68 14.112 17.736 13.744 18.6C13.376 19.464 12.856 20.12 12.184 20.568C11.5173 21.016 10.7333 21.24 9.832 21.24ZM9.848 19.368C10.472 19.368 10.9493 19.0613 11.28 18.448C11.616 17.8293 11.784 16.824 11.784 15.432C11.784 14.04 11.616 13.0267 11.28 12.392C10.9493 11.752 10.4667 11.432 9.832 11.432C9.192 11.432 8.70933 11.744 8.384 12.368C8.05867 12.992 7.896 14.0133 7.896 15.432C7.896 16.8133 8.064 17.816 8.4 18.44C8.74133 19.0587 9.224 19.368 9.848 19.368ZM22.5191 16.648H23.5671C23.6898 16.648 23.7511 16.7093 23.7511 16.832V18.264C23.7511 18.392 23.6898 18.456 23.5671 18.456H22.5191V20.816C22.5191 20.9387 22.4578 21 22.3351 21H20.2791C20.1511 21 20.0871 20.9387 20.0871 20.816V18.456H15.2711C15.1431 18.456 15.0791 18.392 15.0791 18.264V16.52C15.0791 16.424 15.1005 16.344 15.1431 16.28L19.2231 9.92C19.2711 9.84 19.3458 9.8 19.4471 9.8H22.3351C22.4578 9.8 22.5191 9.86133 22.5191 9.984V16.648ZM20.1671 11.576L16.9991 16.648H20.0871V13.832L20.1671 11.576Z" fill="white"/>
<defs>
<linearGradient id="paint0_linear_762_651" x1="-5.14286" y1="-4.28571" x2="36.3628" y2="-1.75522" gradientUnits="userSpaceOnUse">
<stop stop-color="#273343"/>
<stop offset="1" stop-color="#68727E"/>
</linearGradient>
</defs>
</svg>
