<svg width="30" height="30" viewBox="0 0 30 30" fill="none" xmlns="http://www.w3.org/2000/svg">
<rect width="30" height="30" rx="10" fill="url(#paint0_linear_762_657)"/>
<path d="M9.832 21.24C8.936 21.24 8.15467 21.016 7.488 20.568C6.82133 20.12 6.304 19.464 5.936 18.6C5.568 17.736 5.384 16.68 5.384 15.432C5.384 14.136 5.56533 13.0533 5.928 12.184C6.296 11.3093 6.81333 10.6533 7.48 10.216C8.14667 9.77867 8.93067 9.56 9.832 9.56C10.728 9.56 11.5093 9.776 12.176 10.208C12.848 10.64 13.368 11.2907 13.736 12.16C14.1093 13.0293 14.296 14.12 14.296 15.432C14.296 16.68 14.112 17.736 13.744 18.6C13.376 19.464 12.856 20.12 12.184 20.568C11.5173 21.016 10.7333 21.24 9.832 21.24ZM9.848 19.368C10.472 19.368 10.9493 19.0613 11.28 18.448C11.616 17.8293 11.784 16.824 11.784 15.432C11.784 14.04 11.616 13.0267 11.28 12.392C10.9493 11.752 10.4667 11.432 9.832 11.432C9.192 11.432 8.70933 11.744 8.384 12.368C8.05867 12.992 7.896 14.0133 7.896 15.432C7.896 16.8133 8.064 17.816 8.4 18.44C8.74133 19.0587 9.224 19.368 9.848 19.368ZM18.9248 21.256C17.7301 21.256 16.7968 20.9733 16.1248 20.408C15.4581 19.8373 15.0714 19.1013 14.9648 18.2C14.9488 18.072 15.0074 18.008 15.1408 18.008H17.1728C17.2901 18.008 17.3541 18.0693 17.3648 18.192C17.3914 18.496 17.4714 18.752 17.6048 18.96C17.7381 19.168 17.9168 19.3253 18.1408 19.432C18.3648 19.5387 18.6208 19.592 18.9088 19.592C19.2928 19.592 19.6208 19.5013 19.8928 19.32C20.1648 19.1333 20.3728 18.8587 20.5168 18.496C20.6608 18.128 20.7328 17.672 20.7328 17.128C20.7328 16.36 20.5914 15.7707 20.3088 15.36C20.0314 14.9493 19.5754 14.744 18.9408 14.744C18.5248 14.744 18.1754 14.8427 17.8928 15.04C17.6101 15.2373 17.4181 15.52 17.3168 15.888C17.2848 16 17.2154 16.056 17.1088 16.056H15.3648C15.2368 16.056 15.1754 15.9893 15.1808 15.856L15.5968 9.976C15.6021 9.85867 15.6688 9.8 15.7968 9.8H22.4368C22.5594 9.8 22.6208 9.864 22.6208 9.992V11.424C22.6208 11.5467 22.5594 11.608 22.4368 11.608H17.7568L17.5328 13.736C17.8314 13.496 18.1674 13.3227 18.5408 13.216C18.9141 13.104 19.3034 13.048 19.7088 13.048C20.3754 13.048 20.9808 13.2133 21.5248 13.544C22.0688 13.8693 22.5008 14.3253 22.8208 14.912C23.1461 15.4987 23.3088 16.1787 23.3088 16.952C23.3088 17.8373 23.1248 18.6027 22.7568 19.248C22.3888 19.888 21.8741 20.384 21.2128 20.736C20.5568 21.0827 19.7941 21.256 18.9248 21.256Z" fill="white"/>
<defs>
<linearGradient id="paint0_linear_762_657" x1="-5.14286" y1="-4.28571" x2="36.3628" y2="-1.75522" gradientUnits="userSpaceOnUse">
<stop stop-color="#E17A0A"/>
<stop offset="1" stop-color="#EE9A1B"/>
</linearGradient>
</defs>
</svg>
