<svg width="104" height="71" viewBox="0 0 104 71" fill="none" xmlns="http://www.w3.org/2000/svg">
<path d="M26.168 70.2955C21.08 70.2955 16.616 68.9515 12.776 66.2635C8.968 63.5435 6.008 59.5915 3.896 54.4075C1.816 49.2235 0.776 42.9195 0.776 35.4955C0.776 27.8795 1.816 21.4795 3.896 16.2955C6.008 11.0795 8.968 7.14351 12.776 4.48751C16.584 1.83151 21.064 0.50351 26.216 0.50351C31.336 0.50351 35.8 1.81551 39.608 4.43951C43.416 7.06351 46.376 10.9835 48.488 16.1995C50.632 21.3835 51.704 27.8315 51.704 35.5435C51.704 42.9675 50.648 49.2715 48.536 54.4555C46.424 59.6075 43.448 63.5435 39.608 66.2635C35.8 68.9515 31.32 70.2955 26.168 70.2955ZM26.264 61.1755C30.456 61.1755 33.72 59.0955 36.056 54.9355C38.392 50.7755 39.56 44.3115 39.56 35.5435C39.56 26.7755 38.392 20.2635 36.056 16.0075C33.72 11.7515 30.424 9.62351 26.168 9.62351C21.88 9.62351 18.6 11.7355 16.328 15.9595C14.056 20.1515 12.92 26.6795 12.92 35.5435C12.92 44.2475 14.088 50.6955 16.424 54.8875C18.792 59.0795 22.072 61.1755 26.264 61.1755ZM103.119 68.2315C103.119 68.7435 102.847 68.9995 102.303 68.9995H59.3428C58.7988 68.9995 58.5268 68.7435 58.5268 68.2315V59.9275C58.5268 56.1515 59.1348 52.9195 60.3508 50.2315C61.5988 47.5435 63.2148 45.2555 65.1988 43.3675C67.2148 41.4795 69.4228 39.8315 71.8228 38.4235C74.2548 36.9835 76.6708 35.6715 79.0708 34.4875C81.5028 33.3035 83.7268 32.0875 85.7428 30.8395C87.7588 29.5595 89.3748 28.1355 90.5908 26.5675C91.8068 24.9675 92.4148 23.0315 92.4148 20.7595C92.5108 18.4555 92.1428 16.4235 91.3108 14.6635C90.4788 12.9035 89.2148 11.5435 87.5188 10.5835C85.8548 9.62351 83.7588 9.15951 81.2308 9.19151C77.6468 9.19151 74.8148 10.4395 72.7348 12.9355C70.6548 15.4315 69.5348 19.0635 69.3748 23.8315C69.3428 24.3435 69.0708 24.5995 68.5588 24.5995H59.4388C58.9268 24.5995 58.6708 24.3275 58.6708 23.7835C58.7348 16.3915 60.6708 10.6955 64.4788 6.69551C68.2868 2.66351 73.8868 0.647511 81.2788 0.647511C88.4468 0.647511 93.8708 2.40751 97.5508 5.92751C101.263 9.41551 103.199 14.2475 103.359 20.4235C103.359 23.9115 102.735 26.9195 101.487 29.4475C100.271 31.9435 98.6548 34.0875 96.6388 35.8795C94.6548 37.6715 92.4628 39.2555 90.0628 40.6315C87.6628 42.0075 85.2468 43.2875 82.8148 44.4715C80.4148 45.6235 78.2068 46.8235 76.1908 48.0715C74.2068 49.3195 72.5908 50.7435 71.3428 52.3435C70.1268 53.9435 69.5188 55.8475 69.5188 58.0555V60.1675H102.303C102.847 60.1675 103.119 60.4235 103.119 60.9355V68.2315Z" fill="#F0F3F5"/>
</svg>
