<svg width="109" height="71" viewBox="0 0 109 71" fill="none" xmlns="http://www.w3.org/2000/svg">
<path d="M26.168 70.2955C21.08 70.2955 16.616 68.9515 12.776 66.2635C8.968 63.5435 6.008 59.5915 3.896 54.4075C1.816 49.2235 0.776 42.9195 0.776 35.4955C0.776 27.8795 1.816 21.4795 3.896 16.2955C6.008 11.0795 8.968 7.14351 12.776 4.48751C16.584 1.83151 21.064 0.50351 26.216 0.50351C31.336 0.50351 35.8 1.81551 39.608 4.43951C43.416 7.06351 46.376 10.9835 48.488 16.1995C50.632 21.3835 51.704 27.8315 51.704 35.5435C51.704 42.9675 50.648 49.2715 48.536 54.4555C46.424 59.6075 43.448 63.5435 39.608 66.2635C35.8 68.9515 31.32 70.2955 26.168 70.2955ZM26.264 61.1755C30.456 61.1755 33.72 59.0955 36.056 54.9355C38.392 50.7755 39.56 44.3115 39.56 35.5435C39.56 26.7755 38.392 20.2635 36.056 16.0075C33.72 11.7515 30.424 9.62351 26.168 9.62351C21.88 9.62351 18.6 11.7355 16.328 15.9595C14.056 20.1515 12.92 26.6795 12.92 35.5435C12.92 44.2475 14.088 50.6955 16.424 54.8875C18.792 59.0795 22.072 61.1755 26.264 61.1755ZM100.987 43.3675H107.467C108.011 43.3675 108.283 43.6395 108.283 44.1835V51.4315C108.283 51.9435 108.011 52.1995 107.467 52.1995H100.987V68.2795C100.987 68.7915 100.715 69.0475 100.171 69.0475H90.0425C89.5305 69.0475 89.2745 68.7915 89.2745 68.2795V52.1995H59.4185C58.9065 52.1995 58.6505 51.9435 58.6505 51.4315V42.8395C58.6505 42.4875 58.7465 42.1515 58.9385 41.8315L84.8105 2.32751C85.0025 1.97551 85.3225 1.79951 85.7705 1.79951H100.171C100.715 1.79951 100.987 2.05551 100.987 2.56751V43.3675ZM89.6105 10.3435L68.2505 43.3675H89.2745V24.5515L89.6105 10.3435Z" fill="#F0F3F5"/>
</svg>
