<svg width="106" height="71" viewBox="0 0 106 71" fill="none" xmlns="http://www.w3.org/2000/svg">
<path d="M26.168 70.2955C21.08 70.2955 16.616 68.9515 12.776 66.2635C8.968 63.5435 6.008 59.5915 3.896 54.4075C1.816 49.2235 0.776 42.9195 0.776 35.4955C0.776 27.8795 1.816 21.4795 3.896 16.2955C6.008 11.0795 8.968 7.14351 12.776 4.48751C16.584 1.83151 21.064 0.50351 26.216 0.50351C31.336 0.50351 35.8 1.81551 39.608 4.43951C43.416 7.06351 46.376 10.9835 48.488 16.1995C50.632 21.3835 51.704 27.8315 51.704 35.5435C51.704 42.9675 50.648 49.2715 48.536 54.4555C46.424 59.6075 43.448 63.5435 39.608 66.2635C35.8 68.9515 31.32 70.2955 26.168 70.2955ZM26.264 61.1755C30.456 61.1755 33.72 59.0955 36.056 54.9355C38.392 50.7755 39.56 44.3115 39.56 35.5435C39.56 26.7755 38.392 20.2635 36.056 16.0075C33.72 11.7515 30.424 9.62351 26.168 9.62351C21.88 9.62351 18.6 11.7355 16.328 15.9595C14.056 20.1515 12.92 26.6795 12.92 35.5435C12.92 44.2475 14.088 50.6955 16.424 54.8875C18.792 59.0795 22.072 61.1755 26.264 61.1755ZM80.8948 69.9595C73.7908 69.9595 68.3028 68.1675 64.4308 64.5835C60.5908 60.9675 58.4148 55.6715 57.9028 48.6955C57.8388 48.1515 58.0948 47.8795 58.6708 47.8795H68.4148C68.9588 47.8795 69.2308 48.1355 69.2308 48.6475C69.4228 52.8715 70.4948 56.1515 72.4468 58.4875C74.3988 60.7915 77.3108 61.9275 81.1828 61.8955C83.7428 61.8955 85.9188 61.3835 87.7108 60.3595C89.5028 59.3035 90.8788 57.8155 91.8388 55.8955C92.8308 53.9755 93.3428 51.7195 93.3748 49.1275C93.4388 45.0315 92.2548 42.0075 89.8228 40.0555C87.3908 38.0715 83.5828 37.0795 78.3988 37.0795H75.7588C75.2148 37.0795 74.9428 36.8235 74.9428 36.3115V30.2155C74.9428 29.6715 75.2148 29.3995 75.7588 29.3995H78.3988C83.0708 29.3995 86.5268 28.4715 88.7668 26.6155C91.0068 24.7275 92.1268 22.2475 92.1268 19.1755C92.1268 16.0395 91.1348 13.5435 89.1508 11.6875C87.1988 9.83151 84.7508 8.90351 81.8068 8.90351C74.5748 8.90351 70.6868 12.9195 70.1428 20.9515C70.1108 21.4955 69.8388 21.7675 69.3268 21.7675H59.7268C59.1508 21.7675 58.8948 21.4795 58.9588 20.9035C59.2148 16.5515 60.3188 12.8875 62.2708 9.91151C64.2228 6.93551 66.8948 4.67951 70.2868 3.14351C73.7108 1.60751 77.7428 0.839508 82.3828 0.839508C86.5428 0.839508 90.2068 1.54351 93.3748 2.95151C96.5748 4.32751 99.0868 6.31151 100.911 8.90351C102.735 11.4955 103.663 14.5515 103.695 18.0715C103.695 20.8235 103.183 23.1595 102.159 25.0795C101.167 26.9995 99.8068 28.5835 98.0788 29.8315C96.3828 31.0475 94.4788 32.0075 92.3668 32.7115C96.4628 33.6715 99.6468 35.5435 101.919 38.3275C104.223 41.1115 105.375 44.5995 105.375 48.7915C105.375 53.2075 104.287 56.9995 102.111 60.1675C99.9348 63.3035 96.9908 65.7195 93.2788 67.4155C89.5988 69.1115 85.4708 69.9595 80.8948 69.9595Z" fill="#F0F3F5"/>
</svg>
