<svg width="85" height="71" viewBox="0 0 85 71" fill="none" xmlns="http://www.w3.org/2000/svg">
<path d="M26.168 70.2955C21.08 70.2955 16.616 68.9515 12.776 66.2635C8.968 63.5435 6.008 59.5915 3.896 54.4075C1.816 49.2235 0.776 42.9195 0.776 35.4955C0.776 27.8795 1.816 21.4795 3.896 16.2955C6.008 11.0795 8.968 7.14351 12.776 4.48751C16.584 1.83151 21.064 0.50351 26.216 0.50351C31.336 0.50351 35.8 1.81551 39.608 4.43951C43.416 7.06351 46.376 10.9835 48.488 16.1995C50.632 21.3835 51.704 27.8315 51.704 35.5435C51.704 42.9675 50.648 49.2715 48.536 54.4555C46.424 59.6075 43.448 63.5435 39.608 66.2635C35.8 68.9515 31.32 70.2955 26.168 70.2955ZM26.264 61.1755C30.456 61.1755 33.72 59.0955 36.056 54.9355C38.392 50.7755 39.56 44.3115 39.56 35.5435C39.56 26.7755 38.392 20.2635 36.056 16.0075C33.72 11.7515 30.424 9.62351 26.168 9.62351C21.88 9.62351 18.6 11.7355 16.328 15.9595C14.056 20.1515 12.92 26.6795 12.92 35.5435C12.92 44.2475 14.088 50.6955 16.424 54.8875C18.792 59.0795 22.072 61.1755 26.264 61.1755ZM73.2013 68.9995C72.6893 68.9995 72.4333 68.7435 72.4333 68.2315L72.5773 37.0795L72.4813 14.8075C70.6893 16.5035 68.6413 17.9755 66.3373 19.2235C64.0653 20.4395 61.6333 21.4635 59.0413 22.2955C58.4653 22.4875 58.1773 22.2635 58.1773 21.6235V14.2315C58.1773 13.7835 58.3853 13.4635 58.8013 13.2715C61.9053 12.1515 64.6413 10.6635 67.0093 8.80751C69.4093 6.91951 71.3773 4.77551 72.9133 2.37551C73.1053 1.99151 73.4093 1.79951 73.8253 1.79951H83.5213C84.0333 1.79951 84.2893 2.05551 84.2893 2.56751L84.1453 37.5595L84.2893 68.2315C84.3213 68.7435 84.0653 68.9995 83.5213 68.9995H73.2013Z" fill="#F0F3F5"/>
</svg>
