<svg width="30" height="30" viewBox="0 0 30 30" fill="none" xmlns="http://www.w3.org/2000/svg">
<rect width="30" height="30" rx="10" fill="url(#paint0_linear_762_658)"/>
<path d="M9.832 21.24C8.936 21.24 8.15467 21.016 7.488 20.568C6.82133 20.12 6.304 19.464 5.936 18.6C5.568 17.736 5.384 16.68 5.384 15.432C5.384 14.136 5.56533 13.0533 5.928 12.184C6.296 11.3093 6.81333 10.6533 7.48 10.216C8.14667 9.77867 8.93067 9.56 9.832 9.56C10.728 9.56 11.5093 9.776 12.176 10.208C12.848 10.64 13.368 11.2907 13.736 12.16C14.1093 13.0293 14.296 14.12 14.296 15.432C14.296 16.68 14.112 17.736 13.744 18.6C13.376 19.464 12.856 20.12 12.184 20.568C11.5173 21.016 10.7333 21.24 9.832 21.24ZM9.848 19.368C10.472 19.368 10.9493 19.0613 11.28 18.448C11.616 17.8293 11.784 16.824 11.784 15.432C11.784 14.04 11.616 13.0267 11.28 12.392C10.9493 11.752 10.4667 11.432 9.832 11.432C9.192 11.432 8.70933 11.744 8.384 12.368C8.05867 12.992 7.896 14.0133 7.896 15.432C7.896 16.8133 8.064 17.816 8.4 18.44C8.74133 19.0587 9.224 19.368 9.848 19.368ZM19.5271 21.24C18.1671 21.24 17.1005 20.7467 16.3271 19.76C15.5591 18.768 15.1751 17.3253 15.1751 15.432C15.1751 14.1733 15.3618 13.1067 15.7351 12.232C16.1085 11.3573 16.6365 10.6933 17.3191 10.24C18.0018 9.78667 18.8071 9.56 19.7351 9.56C20.7378 9.56 21.5431 9.80267 22.1511 10.288C22.7591 10.7733 23.1245 11.4613 23.2471 12.352C23.2631 12.4853 23.2018 12.552 23.0631 12.552H21.0711C20.9591 12.552 20.8925 12.4933 20.8711 12.376C20.8018 12.056 20.6605 11.7867 20.4471 11.568C20.2338 11.3493 19.9325 11.24 19.5431 11.24C19.1431 11.24 18.8045 11.3653 18.5271 11.616C18.2551 11.8667 18.0471 12.2293 17.9031 12.704C17.7645 13.1733 17.6925 13.7413 17.6871 14.408C17.9378 14.1253 18.2471 13.9013 18.6151 13.736C18.9831 13.5653 19.4578 13.48 20.0391 13.48C20.7645 13.48 21.3991 13.6293 21.9431 13.928C22.4871 14.2213 22.9111 14.6427 23.2151 15.192C23.5191 15.736 23.6711 16.3813 23.6711 17.128C23.6711 17.8747 23.4898 18.56 23.1271 19.184C22.7645 19.808 22.2711 20.3067 21.6471 20.68C21.0231 21.0533 20.3165 21.24 19.5271 21.24ZM19.3991 19.496C19.9218 19.496 20.3431 19.312 20.6631 18.944C20.9831 18.576 21.1431 18.0613 21.1431 17.4C21.1431 16.7173 21.0098 16.176 20.7431 15.776C20.4765 15.376 20.0711 15.176 19.5271 15.176C18.9831 15.176 18.5538 15.36 18.2391 15.728C17.9245 16.096 17.7671 16.6213 17.7671 17.304C17.7671 17.7573 17.8311 18.1493 17.9591 18.48C18.0871 18.8053 18.2711 19.056 18.5111 19.232C18.7565 19.408 19.0525 19.496 19.3991 19.496Z" fill="white"/>
<defs>
<linearGradient id="paint0_linear_762_658" x1="-5.14286" y1="-4.28571" x2="36.3628" y2="-1.75522" gradientUnits="userSpaceOnUse">
<stop stop-color="#E17A0A"/>
<stop offset="1" stop-color="#EE9A1B"/>
</linearGradient>
</defs>
</svg>
