<svg width="30" height="30" viewBox="0 0 30 30" fill="none" xmlns="http://www.w3.org/2000/svg">
<rect width="30" height="30" rx="10" fill="url(#paint0_linear_762_650)"/>
<path d="M10.832 21.24C9.936 21.24 9.15467 21.016 8.488 20.568C7.82133 20.12 7.304 19.464 6.936 18.6C6.568 17.736 6.384 16.68 6.384 15.432C6.384 14.136 6.56533 13.0533 6.928 12.184C7.296 11.3093 7.81333 10.6533 8.48 10.216C9.14667 9.77867 9.93067 9.56 10.832 9.56C11.728 9.56 12.5093 9.776 13.176 10.208C13.848 10.64 14.368 11.2907 14.736 12.16C15.1093 13.0293 15.296 14.12 15.296 15.432C15.296 16.68 15.112 17.736 14.744 18.6C14.376 19.464 13.856 20.12 13.184 20.568C12.5173 21.016 11.7333 21.24 10.832 21.24ZM10.848 19.368C11.472 19.368 11.9493 19.0613 12.28 18.448C12.616 17.8293 12.784 16.824 12.784 15.432C12.784 14.04 12.616 13.0267 12.28 12.392C11.9493 11.752 11.4667 11.432 10.832 11.432C10.192 11.432 9.70933 11.744 9.384 12.368C9.05867 12.992 8.896 14.0133 8.896 15.432C8.896 16.8133 9.064 17.816 9.4 18.44C9.74133 19.0587 10.224 19.368 10.848 19.368ZM19.8509 21.16C18.6295 21.16 17.6909 20.864 17.0349 20.272C16.3789 19.68 16.0002 18.8133 15.8989 17.672C15.8829 17.544 15.9442 17.48 16.0829 17.48H18.0509C18.1682 17.48 18.2322 17.5413 18.2429 17.664C18.2749 18.256 18.4295 18.7173 18.7069 19.048C18.9842 19.3733 19.3869 19.5333 19.9149 19.528C20.2402 19.528 20.5255 19.4533 20.7709 19.304C21.0215 19.1547 21.2189 18.9387 21.3629 18.656C21.5069 18.3733 21.5842 18.0347 21.5949 17.64C21.6109 17 21.4349 16.5387 21.0669 16.256C20.7042 15.9733 20.1069 15.832 19.2749 15.832H18.9869C18.8589 15.832 18.7949 15.768 18.7949 15.64V14.464C18.7949 14.3413 18.8589 14.28 18.9869 14.28H19.2749C20.0109 14.28 20.5495 14.1387 20.8909 13.856C21.2322 13.5733 21.4029 13.208 21.4029 12.76C21.4029 12.328 21.2669 11.9733 20.9949 11.696C20.7282 11.4133 20.3949 11.272 19.9949 11.272C19.0295 11.272 18.5015 11.8107 18.4109 12.888C18.3949 13.016 18.3282 13.08 18.2109 13.08H16.2669C16.1335 13.08 16.0749 13.0133 16.0909 12.88C16.1442 12.1813 16.3362 11.592 16.6669 11.112C16.9975 10.6267 17.4535 10.2613 18.0349 10.016C18.6215 9.76533 19.3175 9.64 20.1229 9.64C20.8482 9.64 21.4829 9.76 22.0269 10C22.5762 10.2347 23.0055 10.568 23.3149 11C23.6242 11.432 23.7815 11.9387 23.7869 12.52C23.7869 12.968 23.7069 13.352 23.5469 13.672C23.3869 13.9867 23.1682 14.248 22.8909 14.456C22.6135 14.6587 22.2989 14.8187 21.9469 14.936C22.6295 15.112 23.1549 15.424 23.5229 15.872C23.8909 16.3147 24.0749 16.8773 24.0749 17.56C24.0749 18.328 23.8802 18.9813 23.4909 19.52C23.1015 20.0533 22.5869 20.4613 21.9469 20.744C21.3069 21.0213 20.6082 21.16 19.8509 21.16Z" fill="white"/>
<defs>
<linearGradient id="paint0_linear_762_650" x1="-5.14286" y1="-4.28571" x2="36.3628" y2="-1.75522" gradientUnits="userSpaceOnUse">
<stop stop-color="#273343"/>
<stop offset="1" stop-color="#68727E"/>
</linearGradient>
</defs>
</svg>
