<svg width="30" height="30" viewBox="0 0 30 30" fill="none" xmlns="http://www.w3.org/2000/svg">
<rect width="30" height="30" rx="10" fill="url(#paint0_linear_761_648)"/>
<path d="M11.832 21.24C10.936 21.24 10.1547 21.016 9.488 20.568C8.82133 20.12 8.304 19.464 7.936 18.6C7.568 17.736 7.384 16.68 7.384 15.432C7.384 14.136 7.56533 13.0533 7.928 12.184C8.296 11.3093 8.81333 10.6533 9.48 10.216C10.1467 9.77867 10.9307 9.56 11.832 9.56C12.728 9.56 13.5093 9.776 14.176 10.208C14.848 10.64 15.368 11.2907 15.736 12.16C16.1093 13.0293 16.296 14.12 16.296 15.432C16.296 16.68 16.112 17.736 15.744 18.6C15.376 19.464 14.856 20.12 14.184 20.568C13.5173 21.016 12.7333 21.24 11.832 21.24ZM11.848 19.368C12.472 19.368 12.9493 19.0613 13.28 18.448C13.616 17.8293 13.784 16.824 13.784 15.432C13.784 14.04 13.616 13.0267 13.28 12.392C12.9493 11.752 12.4667 11.432 11.832 11.432C11.192 11.432 10.7093 11.744 10.384 12.368C10.0587 12.992 9.896 14.0133 9.896 15.432C9.896 16.8133 10.064 17.816 10.4 18.44C10.7413 19.0587 11.224 19.368 11.848 19.368ZM19.6791 21C19.5565 21 19.4951 20.936 19.4951 20.808L19.5831 15.408L19.5351 12.488C19.2525 12.76 18.9218 12.9973 18.5431 13.2C18.1698 13.3973 17.7671 13.5653 17.3351 13.704C17.1911 13.7467 17.1191 13.6933 17.1191 13.544V12.072C17.1191 11.9653 17.1698 11.8933 17.2711 11.856C17.8045 11.664 18.2631 11.4053 18.6471 11.08C19.0365 10.7547 19.3511 10.3733 19.5911 9.936C19.6391 9.84533 19.7138 9.8 19.8151 9.8H21.8551C21.9725 9.8 22.0311 9.86133 22.0311 9.984L21.9191 15.96L22.0311 20.808C22.0418 20.936 21.9831 21 21.8551 21H19.6791Z" fill="white"/>
<defs>
<linearGradient id="paint0_linear_761_648" x1="-5.14286" y1="-4.28571" x2="36.3628" y2="-1.75522" gradientUnits="userSpaceOnUse">
<stop stop-color="#273343"/>
<stop offset="1" stop-color="#68727E"/>
</linearGradient>
</defs>
</svg>
