<svg width="80" height="80" viewBox="0 0 80 80" fill="none" xmlns="http://www.w3.org/2000/svg">
<rect width="80" height="80" rx="20" fill="url(#paint0_linear_757_3451)"/>
<path d="M22 52V34C22 32.9391 22.4214 31.9217 23.1716 31.1716C23.9217 30.4214 24.9391 30 26 30H27.86C28.5184 30.0001 29.1666 29.8377 29.7471 29.5272C30.3277 29.2167 30.8226 28.7677 31.188 28.22L32.812 25.78C33.1774 25.2323 33.6723 24.7833 34.2529 24.4728C34.8334 24.1623 35.4816 23.9999 36.14 24H43.86C44.5184 23.9999 45.1666 24.1623 45.7471 24.4728C46.3277 24.7833 46.8226 25.2323 47.188 25.78L48.812 28.22C49.1774 28.7677 49.6723 29.2167 50.2529 29.5272C50.8334 29.8377 51.4816 30.0001 52.14 30H54C55.0609 30 56.0783 30.4214 56.8284 31.1716C57.5786 31.9217 58 32.9391 58 34V52C58 53.0609 57.5786 54.0783 56.8284 54.8284C56.0783 55.5786 55.0609 56 54 56H26C24.9391 56 23.9217 55.5786 23.1716 54.8284C22.4214 54.0783 22 53.0609 22 52Z" stroke="white" stroke-width="2" stroke-linecap="round" stroke-linejoin="round"/>
<path d="M40 48C43.3137 48 46 45.3137 46 42C46 38.6863 43.3137 36 40 36C36.6863 36 34 38.6863 34 42C34 45.3137 36.6863 48 40 48Z" stroke="white" stroke-width="2" stroke-linecap="round" stroke-linejoin="round"/>
<defs>
<linearGradient id="paint0_linear_757_3451" x1="-13.7143" y1="-11.4285" x2="96.9675" y2="-4.68058" gradientUnits="userSpaceOnUse">
<stop stop-color="#E17A0A"/>
<stop offset="1" stop-color="#EE9A1B"/>
</linearGradient>
</defs>
</svg>
