<svg width="40" height="40" viewBox="0 0 40 40" fill="none" xmlns="http://www.w3.org/2000/svg">
<rect opacity="0.4" x="39" y="39.0002" width="38" height="38" rx="9" transform="rotate(-180 39 39.0002)" stroke="#263242" stroke-width="2"/>
<g opacity="0.4">
<mask id="path-2-inside-1_734_3487" fill="white">
<path d="M23.6941 26.6921C23.89 26.4947 24 26.227 24 25.948C24 25.6689 23.89 25.4012 23.6941 25.2038L18.5221 19.9939L23.6941 14.784C23.8844 14.5854 23.9897 14.3196 23.9873 14.0436C23.985 13.7676 23.8751 13.5037 23.6814 13.3085C23.4876 13.1134 23.2256 13.0027 22.9516 13.0003C22.6777 12.9979 22.4137 13.104 22.2167 13.2957L16.3059 19.2498C16.11 19.4471 16 19.7148 16 19.9939C16 20.273 16.11 20.5406 16.3059 20.738L22.2167 26.6921C22.4126 26.8894 22.6783 27.0002 22.9554 27.0002C23.2324 27.0002 23.4981 26.8894 23.6941 26.6921V26.6921Z"/>
</mask>
<path d="M23.6941 26.6921C23.89 26.4947 24 26.227 24 25.948C24 25.6689 23.89 25.4012 23.6941 25.2038L18.5221 19.9939L23.6941 14.784C23.8844 14.5854 23.9897 14.3196 23.9873 14.0436C23.985 13.7676 23.8751 13.5037 23.6814 13.3085C23.4876 13.1134 23.2256 13.0027 22.9516 13.0003C22.6777 12.9979 22.4137 13.104 22.2167 13.2957L16.3059 19.2498C16.11 19.4471 16 19.7148 16 19.9939C16 20.273 16.11 20.5406 16.3059 20.738L22.2167 26.6921C22.4126 26.8894 22.6783 27.0002 22.9554 27.0002C23.2324 27.0002 23.4981 26.8894 23.6941 26.6921V26.6921Z" fill="#263242"/>
<path d="M23.6941 25.2038L23.7066 25.1914L23.7066 25.1914L23.6941 25.2038ZM18.5221 19.9939L18.5096 19.9815L18.4973 19.9939L18.5096 20.0063L18.5221 19.9939ZM23.6941 14.784L23.7066 14.7963L23.7068 14.7961L23.6941 14.784ZM22.2167 13.2957L22.2044 13.2831L22.2042 13.2833L22.2167 13.2957ZM16.3059 19.2498L16.2934 19.2374L16.2934 19.2374L16.3059 19.2498ZM16.3059 20.738L16.2934 20.7504L16.2934 20.7504L16.3059 20.738ZM22.2167 26.6921L22.2042 26.7045L22.2042 26.7045L22.2167 26.6921ZM23.7066 26.7045C23.9057 26.5038 24.0176 26.2317 24.0176 25.948L23.9824 25.948C23.9824 26.2224 23.8742 26.4856 23.6816 26.6797L23.7066 26.7045ZM24.0176 25.948C24.0176 25.6642 23.9057 25.3921 23.7066 25.1914L23.6816 25.2162C23.8742 25.4103 23.9824 25.6735 23.9824 25.948L24.0176 25.948ZM23.7066 25.1914L18.5345 19.9815L18.5096 20.0063L23.6816 25.2162L23.7066 25.1914ZM18.5345 20.0063L23.7066 14.7963L23.6816 14.7716L18.5096 19.9815L18.5345 20.0063ZM23.7068 14.7961C23.9003 14.5943 24.0073 14.324 24.0049 14.0435L23.9698 14.0438C23.9721 14.3152 23.8685 14.5766 23.6814 14.7718L23.7068 14.7961ZM24.0049 14.0435C24.0025 13.7629 23.8908 13.4945 23.6938 13.2961L23.6689 13.3209C23.8594 13.5128 23.9674 13.7724 23.9698 14.0438L24.0049 14.0435ZM23.6938 13.2961C23.4969 13.0977 23.2304 12.9851 22.9518 12.9827L22.9515 13.0179C23.2208 13.0202 23.4784 13.129 23.6689 13.3209L23.6938 13.2961ZM22.9518 12.9827C22.6732 12.9803 22.4048 13.0882 22.2044 13.2831L22.2289 13.3083C22.4227 13.1198 22.6821 13.0155 22.9515 13.0179L22.9518 12.9827ZM22.2042 13.2833L16.2934 19.2374L16.3184 19.2621L22.2291 13.3081L22.2042 13.2833ZM16.2934 19.2374C16.0943 19.4381 15.9824 19.7102 15.9824 19.9939L16.0176 19.9939C16.0176 19.7194 16.1258 19.4562 16.3184 19.2621L16.2934 19.2374ZM15.9824 19.9939C15.9824 20.2776 16.0943 20.5497 16.2934 20.7504L16.3184 20.7256C16.1258 20.5316 16.0176 20.2684 16.0176 19.9939L15.9824 19.9939ZM16.2934 20.7504L22.2042 26.7045L22.2291 26.6797L16.3184 20.7256L16.2934 20.7504ZM22.2042 26.7045C22.4034 26.9051 22.6736 27.0178 22.9554 27.0178L22.9554 26.9827C22.683 26.9827 22.4218 26.8737 22.2291 26.6797L22.2042 26.7045ZM22.9554 27.0178C23.2371 27.0178 23.5073 26.9051 23.7066 26.7045L23.6816 26.6797C23.489 26.8737 23.2277 26.9827 22.9554 26.9827L22.9554 27.0178Z" fill="#263242" mask="url(#path-2-inside-1_734_3487)"/>
</g>
</svg>
