<svg width="60" height="60" viewBox="0 0 60 60" fill="none" xmlns="http://www.w3.org/2000/svg">
<path d="M29.9999 60V58.9796C30.3866 51.4319 33.559 44.2962 38.9037 38.9523C44.2524 33.5785 51.4083 30.3875 58.9796 30.0001H60H58.9796C51.4319 29.6134 44.2962 26.441 38.9523 21.0963C33.5785 15.7476 30.3875 8.59171 30.0001 1.02036V0V1.02036C29.6134 8.56814 26.441 15.7038 21.0963 21.0477C15.7476 26.4215 8.59171 29.6125 1.02036 29.9999H0H1.02036C8.56813 30.3866 15.7038 33.559 21.0477 38.9037C26.4215 44.2524 29.6125 51.4083 29.9999 58.9796V60Z" fill="white"/>
</svg>
