<svg width="30" height="30" viewBox="0 0 30 30" fill="none" xmlns="http://www.w3.org/2000/svg">
<rect width="30" height="30" rx="10" fill="url(#paint0_linear_762_649)"/>
<path d="M10.832 21.24C9.936 21.24 9.15467 21.016 8.488 20.568C7.82133 20.12 7.304 19.464 6.936 18.6C6.568 17.736 6.384 16.68 6.384 15.432C6.384 14.136 6.56533 13.0533 6.928 12.184C7.296 11.3093 7.81333 10.6533 8.48 10.216C9.14667 9.77867 9.93067 9.56 10.832 9.56C11.728 9.56 12.5093 9.776 13.176 10.208C13.848 10.64 14.368 11.2907 14.736 12.16C15.1093 13.0293 15.296 14.12 15.296 15.432C15.296 16.68 15.112 17.736 14.744 18.6C14.376 19.464 13.856 20.12 13.184 20.568C12.5173 21.016 11.7333 21.24 10.832 21.24ZM10.848 19.368C11.472 19.368 11.9493 19.0613 12.28 18.448C12.616 17.8293 12.784 16.824 12.784 15.432C12.784 14.04 12.616 13.0267 12.28 12.392C11.9493 11.752 11.4667 11.432 10.832 11.432C10.192 11.432 9.70933 11.744 9.384 12.368C9.05867 12.992 8.896 14.0133 8.896 15.432C8.896 16.8133 9.064 17.816 9.4 18.44C9.74133 19.0587 10.224 19.368 10.848 19.368ZM23.7789 20.808C23.7789 20.936 23.7175 21 23.5949 21H16.1789C16.0509 21 15.9869 20.936 15.9869 20.808V19.432C15.9869 18.792 16.0855 18.2453 16.2829 17.792C16.4855 17.3333 16.7495 16.944 17.0749 16.624C17.4055 16.2987 17.7682 16.0187 18.1629 15.784C18.5575 15.544 18.9522 15.328 19.3469 15.136C19.7415 14.9387 20.1015 14.744 20.4269 14.552C20.7575 14.3547 21.0215 14.136 21.2189 13.896C21.4215 13.656 21.5229 13.368 21.5229 13.032C21.5389 12.6747 21.4882 12.368 21.3709 12.112C21.2535 11.856 21.0749 11.6613 20.8349 11.528C20.5949 11.3947 20.3015 11.3307 19.9549 11.336C19.4589 11.3413 19.0615 11.52 18.7629 11.872C18.4642 12.224 18.3042 12.7333 18.2829 13.4C18.2722 13.528 18.2082 13.592 18.0909 13.592H16.2429C16.1149 13.592 16.0509 13.528 16.0509 13.4C16.0615 12.1947 16.3922 11.2613 17.0429 10.6C17.6989 9.93333 18.6695 9.59733 19.9549 9.592C21.2029 9.592 22.1442 9.89067 22.7789 10.488C23.4135 11.08 23.7469 11.9013 23.7789 12.952C23.7789 13.544 23.6775 14.056 23.4749 14.488C23.2775 14.9147 23.0135 15.2827 22.6829 15.592C22.3575 15.9013 21.9975 16.1707 21.6029 16.4C21.2135 16.6293 20.8215 16.8373 20.4269 17.024C20.0375 17.2107 19.6775 17.3973 19.3469 17.584C19.0215 17.7707 18.7575 17.9787 18.5549 18.208C18.3575 18.432 18.2589 18.696 18.2589 19V19.192H23.5949C23.7175 19.192 23.7789 19.2533 23.7789 19.376V20.808Z" fill="white"/>
<defs>
<linearGradient id="paint0_linear_762_649" x1="-5.14286" y1="-4.28571" x2="36.3628" y2="-1.75522" gradientUnits="userSpaceOnUse">
<stop stop-color="#273343"/>
<stop offset="1" stop-color="#68727E"/>
</linearGradient>
</defs>
</svg>
