<svg width="283" height="283" viewBox="0 0 283 283" fill="none" xmlns="http://www.w3.org/2000/svg">
<g filter="url(#filter0_bii_730_648)">
<mask id="path-1-inside-1_730_648" fill="white">
<path fill-rule="evenodd" clip-rule="evenodd" d="M141.317 241.318C196.546 241.318 241.317 196.546 241.317 141.318C241.317 86.0893 196.546 41.3177 141.317 41.3177C86.0887 41.3177 41.3172 86.0893 41.3172 141.318C41.3172 196.546 86.0887 241.318 141.317 241.318ZM141.318 187.318C166.723 187.318 187.318 166.723 187.318 141.318C187.318 115.913 166.723 95.3179 141.318 95.3179C115.913 95.3179 95.3177 115.913 95.3177 141.318C95.3177 166.723 115.913 187.318 141.318 187.318Z"/>
</mask>
<path fill-rule="evenodd" clip-rule="evenodd" d="M141.317 241.318C196.546 241.318 241.317 196.546 241.317 141.318C241.317 86.0893 196.546 41.3177 141.317 41.3177C86.0887 41.3177 41.3172 86.0893 41.3172 141.318C41.3172 196.546 86.0887 241.318 141.317 241.318ZM141.318 187.318C166.723 187.318 187.318 166.723 187.318 141.318C187.318 115.913 166.723 95.3179 141.318 95.3179C115.913 95.3179 95.3177 115.913 95.3177 141.318C95.3177 166.723 115.913 187.318 141.318 187.318Z" fill="url(#paint0_linear_730_648)" fill-opacity="0.6"/>
<path d="M241.317 141.318L242.317 141.318L242.317 141.318L241.317 141.318ZM141.317 241.318L141.317 240.318H141.317L141.317 241.318ZM141.317 41.3177L141.317 42.3177L141.317 42.3177L141.317 41.3177ZM41.3172 141.318L42.3172 141.318V141.318L41.3172 141.318ZM187.318 141.318L186.318 141.318L186.318 141.318L187.318 141.318ZM141.318 187.318L141.318 186.318L141.318 186.318L141.318 187.318ZM141.318 95.3179L141.318 96.3179H141.318L141.318 95.3179ZM95.3177 141.318L96.3177 141.318V141.318L95.3177 141.318ZM240.317 141.318C240.317 195.994 195.993 240.318 141.317 240.318L141.317 242.318C197.098 242.318 242.317 197.098 242.317 141.318L240.317 141.318ZM141.317 42.3177C195.993 42.3177 240.317 86.6415 240.317 141.318L242.317 141.318C242.317 85.537 197.098 40.3177 141.317 40.3177L141.317 42.3177ZM42.3172 141.318C42.3172 86.6415 86.641 42.3177 141.317 42.3177L141.317 40.3177C85.5365 40.3177 40.3172 85.537 40.3172 141.318L42.3172 141.318ZM141.317 240.318C86.641 240.318 42.3172 195.994 42.3172 141.318L40.3172 141.318C40.3172 197.098 85.5365 242.318 141.317 242.318L141.317 240.318ZM186.318 141.318C186.318 166.171 166.171 186.318 141.318 186.318L141.318 188.318C167.275 188.318 188.318 167.275 188.318 141.318L186.318 141.318ZM141.318 96.3179C166.171 96.3179 186.318 116.465 186.318 141.318L188.318 141.318C188.318 115.36 167.275 94.3179 141.318 94.3179L141.318 96.3179ZM96.3177 141.318C96.3177 116.465 116.465 96.3179 141.318 96.3179L141.318 94.3179C115.36 94.3179 94.3177 115.36 94.3177 141.318L96.3177 141.318ZM141.318 186.318C116.465 186.318 96.3177 166.171 96.3177 141.318L94.3177 141.318C94.3177 167.275 115.36 188.318 141.318 188.318L141.318 186.318Z" fill="url(#paint1_linear_730_648)" fill-opacity="0.3" mask="url(#path-1-inside-1_730_648)"/>
</g>
<g opacity="0.8" filter="url(#filter1_bii_730_648)">
<path d="M202.316 141.318C202.316 175.007 175.006 202.318 141.316 202.318C107.627 202.318 80.3164 175.007 80.3164 141.318C80.3164 107.628 107.627 80.3179 141.316 80.3179C175.006 80.3179 202.316 107.628 202.316 141.318Z" stroke="url(#paint2_linear_730_648)" stroke-opacity="0.01" stroke-width="2"/>
</g>
<path d="M225.677 150.439C225.669 150.542 225.612 150.589 225.505 150.581L220.786 150.136L216.059 149.888C215.948 149.879 215.896 149.824 215.903 149.722L216.04 147.858C216.048 147.751 216.108 147.701 216.219 147.71L220.931 148.154L224.246 148.327L224.544 144.271L221.239 143.965L216.513 143.716C216.401 143.708 216.349 143.65 216.357 143.543L216.494 141.679C216.502 141.572 216.561 141.523 216.673 141.531L221.385 141.982L226.119 142.225C226.226 142.233 226.275 142.29 226.267 142.397L225.677 150.439Z" fill="white"/>
<path d="M215.549 153.091C215.572 152.986 215.639 152.946 215.748 152.97L220.347 154.087L224.993 155.028C225.097 155.051 225.138 155.115 225.115 155.22L224.316 158.807C224.059 159.964 223.602 160.802 222.947 161.32C222.291 161.839 221.453 161.985 220.433 161.758C219.763 161.609 219.224 161.336 218.815 160.939C218.406 160.542 218.137 160.042 218.008 159.44C217.883 158.843 217.905 158.164 218.074 157.403L218.441 155.757L215.27 155.115C215.161 155.091 215.117 155.029 215.14 154.929L215.549 153.091ZM219.961 156.081L219.558 157.891C219.467 158.297 219.515 158.673 219.701 159.02C219.885 159.372 220.265 159.612 220.839 159.74C221.385 159.861 221.818 159.817 222.138 159.606C222.457 159.395 222.672 159.043 222.781 158.551L223.16 156.85L219.961 156.081Z" fill="white"/>
<path d="M213.23 163.315C213.269 163.215 213.34 163.185 213.445 163.225L217.83 165.006L222.287 166.619C222.387 166.657 222.418 166.727 222.38 166.827L221.725 168.532C221.685 168.637 221.615 168.67 221.515 168.632L218.008 167.278L215.187 166.091L220.047 172.612C220.097 172.676 220.106 172.75 220.075 172.833L219.397 174.597C219.359 174.697 219.29 174.728 219.189 174.69L214.793 172.92L210.347 171.296C210.243 171.256 210.21 171.186 210.248 171.086L210.903 169.38C210.941 169.28 211.013 169.25 211.117 169.29L214.46 170.603L217.475 171.85L212.585 165.309C212.53 165.243 212.52 165.167 212.553 165.08L213.23 163.315Z" fill="white"/>
<path d="M208.423 175.501C208.326 175.445 208.305 175.37 208.359 175.278L209.18 173.876C209.234 173.784 209.31 173.766 209.406 173.822L213.444 176.293L217.579 178.609C217.671 178.664 217.69 178.737 217.636 178.83L216.345 181.034C216.295 181.119 216.225 181.151 216.134 181.13L208.745 179.827L213.569 185.509C213.632 185.578 213.639 185.653 213.592 185.733L212.386 187.793C212.331 187.886 212.258 187.905 212.165 187.851L208.119 185.383L203.993 183.063C203.896 183.007 203.875 182.932 203.93 182.84L204.853 181.263C204.91 181.167 204.986 181.147 205.083 181.203L207.91 182.859L210.851 184.679L206.217 179.198C206.157 179.125 206.15 179.049 206.198 178.968L206.905 177.76C206.952 177.679 207.022 177.647 207.115 177.664L214.539 178.979L211.25 177.157L208.423 175.501Z" fill="white"/>
<path d="M197.978 190.781C197.891 190.711 197.882 190.634 197.949 190.55L202.158 185.384C202.226 185.301 202.303 185.294 202.39 185.365L205.993 188.435L209.733 191.347C209.816 191.415 209.824 191.49 209.756 191.573L205.618 196.653C205.55 196.736 205.475 196.744 205.392 196.676L204.42 195.885C204.333 195.814 204.324 195.737 204.392 195.654L207.243 192.153L205.549 190.665L202.9 193.916C202.833 193.999 202.757 194.006 202.674 193.939L201.702 193.147C201.616 193.077 201.606 193 201.674 192.916L204.322 189.666L202.094 187.968L199.176 191.55C199.108 191.633 199.033 191.64 198.949 191.573L197.978 190.781Z" fill="white"/>
<path d="M196.15 192.696C196.228 192.622 196.305 192.626 196.382 192.708L199.563 196.212L202.882 199.596C202.955 199.674 202.953 199.75 202.875 199.824L200.202 202.346C199.34 203.159 198.492 203.597 197.658 203.659C196.825 203.72 196.049 203.371 195.332 202.61C194.861 202.111 194.568 201.583 194.452 201.025C194.336 200.467 194.394 199.903 194.625 199.332C194.856 198.767 195.255 198.218 195.822 197.683L197.049 196.525L194.783 194.216C194.707 194.135 194.705 194.059 194.78 193.988L196.15 192.696ZM198.125 197.646L196.776 198.919C196.474 199.204 196.302 199.542 196.261 199.934C196.217 200.329 196.396 200.74 196.8 201.168C197.184 201.575 197.568 201.781 197.95 201.785C198.333 201.79 198.708 201.619 199.074 201.273L200.342 200.077L198.125 197.646Z" fill="white"/>
<path d="M183.897 203.244C183.989 203.189 184.063 203.209 184.121 203.305L186.48 207.409L188.998 211.424C189.053 211.516 189.035 211.59 188.943 211.645L185.793 213.537C184.777 214.148 183.855 214.394 183.027 214.276C182.2 214.158 181.517 213.651 180.978 212.755C180.625 212.167 180.452 211.588 180.458 211.018C180.464 210.448 180.641 209.909 180.989 209.401C181.335 208.899 181.842 208.447 182.51 208.046L183.956 207.177L182.237 204.437C182.179 204.341 182.194 204.267 182.282 204.214L183.897 203.244ZM184.768 208.502L183.178 209.457C182.822 209.671 182.582 209.965 182.458 210.339C182.331 210.715 182.418 211.155 182.721 211.659C183.009 212.139 183.34 212.422 183.713 212.508C184.086 212.595 184.488 212.508 184.92 212.249L186.415 211.351L184.768 208.502Z" fill="white"/>
<path d="M166.972 212.111C166.884 212.011 166.901 211.936 167.021 211.886L168.739 211.167C168.825 211.131 168.9 211.147 168.965 211.216L170.567 213.103L173.957 211.684L173.714 209.236C173.703 209.139 173.743 209.072 173.834 209.034L175.519 208.329C175.64 208.278 175.705 208.319 175.715 208.452L176.339 218.465C176.344 218.56 176.303 218.625 176.216 218.661L173.827 219.661C173.746 219.695 173.672 219.678 173.608 219.608L166.972 212.111ZM174.567 217.803L174.133 213.447L171.718 214.458L174.567 217.803Z" fill="white"/>
<path d="M163.959 219.322L162.073 219.802C161.173 220.031 160.418 220.103 159.809 220.018C159.196 219.938 158.707 219.711 158.342 219.337C157.977 218.962 157.714 218.456 157.551 217.819C157.392 217.195 157.4 216.62 157.574 216.094C157.744 215.569 158.08 215.113 158.583 214.724C159.082 214.337 159.743 214.039 160.566 213.829L164.337 212.868C164.441 212.842 164.507 212.883 164.535 212.991L165.601 217.603L166.873 222.169C166.899 222.273 166.861 222.339 166.757 222.365L160.387 223.988C160.283 224.014 160.218 223.975 160.191 223.871L159.882 222.657C159.854 222.549 159.892 222.481 159.996 222.455L164.412 221.33L163.959 219.322ZM162.774 214.899L160.888 215.38C160.35 215.517 159.969 215.739 159.744 216.047C159.515 216.36 159.464 216.763 159.59 217.256C159.67 217.573 159.794 217.823 159.961 218.007C160.125 218.196 160.345 218.313 160.622 218.359C160.895 218.409 161.235 218.383 161.642 218.279L163.582 217.785L162.774 214.899Z" fill="white"/>
<path d="M149.741 215.648C150.735 215.551 151.622 215.681 152.402 216.037C153.177 216.398 153.806 216.938 154.288 217.655C154.766 218.378 155.053 219.236 155.149 220.23C155.249 221.266 155.134 222.187 154.804 222.992C154.474 223.798 153.962 224.445 153.269 224.934C152.571 225.428 151.723 225.724 150.724 225.82C149.735 225.916 148.851 225.79 148.072 225.444C147.289 225.102 146.656 224.568 146.173 223.841C145.69 223.119 145.398 222.233 145.297 221.183C145.201 220.189 145.32 219.291 145.655 218.49C145.991 217.693 146.507 217.043 147.204 216.54C147.901 216.041 148.747 215.744 149.741 215.648ZM149.884 217.279C149.299 217.336 148.818 217.521 148.44 217.834C148.058 218.152 147.788 218.577 147.628 219.108C147.464 219.64 147.416 220.261 147.485 220.971C147.553 221.682 147.717 222.287 147.977 222.787C148.237 223.292 148.584 223.666 149.021 223.91C149.457 224.154 149.972 224.247 150.567 224.19C151.161 224.132 151.649 223.944 152.031 223.626C152.408 223.308 152.676 222.879 152.835 222.339C152.989 221.799 153.031 221.166 152.961 220.442C152.893 219.736 152.727 219.135 152.463 218.64C152.2 218.15 151.851 217.785 151.415 217.546C150.98 217.312 150.47 217.223 149.884 217.279Z" fill="white"/>
<path d="M137.138 216.372C137.135 216.26 137.189 216.206 137.301 216.212L139.244 216.31C139.361 216.316 139.412 216.374 139.397 216.486L139.033 221.205L138.972 224.524L141.615 224.657C141.722 224.662 141.773 224.721 141.767 224.833L141.704 226.084C141.699 226.192 141.643 226.242 141.535 226.237L134.034 225.86C133.922 225.855 133.869 225.798 133.874 225.691L133.937 224.44C133.943 224.328 134.001 224.275 134.113 224.28L136.756 224.413L137.027 221.105L137.138 216.372Z" fill="white"/>
<path d="M117.183 215.039C117.217 214.932 117.285 214.895 117.387 214.928L120.354 215.879C120.461 215.913 120.497 215.983 120.463 216.09L119.461 219.216C119.428 219.318 119.359 219.352 119.252 219.318L116.285 218.368C116.183 218.335 116.149 218.268 116.181 218.165L117.183 215.039Z" fill="url(#paint3_linear_730_648)"/>
<path d="M92.1557 210.479C92.0701 210.423 92.0569 210.35 92.1162 210.26L94.8147 206.363L97.346 202.364C97.4079 202.271 97.4816 202.252 97.5672 202.309L99.1254 203.341C99.2149 203.4 99.2287 203.477 99.1669 203.57L96.4722 207.461L94.6983 210.266L98.0891 212.512L99.9738 209.78L102.505 205.781C102.567 205.688 102.643 205.671 102.732 205.73L104.29 206.762C104.38 206.821 104.394 206.898 104.332 206.991L101.631 210.878L99.1019 214.887C99.0426 214.977 98.9682 214.992 98.8787 214.932L92.1557 210.479Z" fill="white"/>
<path d="M94.8648 200.378C94.945 200.45 94.9478 200.527 94.8734 200.611L91.6595 204.085L88.5769 207.686C88.5055 207.766 88.4297 207.77 88.3495 207.699L85.6043 205.256C84.7189 204.468 84.2091 203.661 84.0752 202.836C83.9412 202.011 84.2217 201.208 84.9166 200.427C85.3727 199.915 85.8736 199.576 86.4194 199.412C86.9652 199.248 87.5325 199.257 88.1215 199.437C88.7039 199.618 89.2861 199.968 89.8683 200.486L91.1285 201.607L93.2314 199.15C93.3059 199.066 93.3815 199.058 93.4582 199.127L94.8648 200.378ZM90.1058 202.777L88.7201 201.544C88.4099 201.268 88.0579 201.127 87.6641 201.12C87.2669 201.11 86.8728 201.325 86.4819 201.764C86.1096 202.182 85.9379 202.582 85.9667 202.964C85.9955 203.346 86.1982 203.704 86.5747 204.039L87.8767 205.198L90.1058 202.777Z" fill="white"/>
<path d="M87.1141 193.405C87.1831 193.487 87.1747 193.564 87.0889 193.636L83.4055 196.608L79.8338 199.724C79.7516 199.793 79.676 199.787 79.607 199.704L78.4326 198.305C78.3606 198.219 78.3657 198.142 78.4479 198.073L81.3319 195.662L83.7382 193.77L75.6783 194.859C75.5976 194.872 75.5288 194.844 75.4718 194.776L74.2569 193.329C74.1879 193.246 74.1946 193.171 74.2768 193.102L77.9565 190.115L81.5319 187.014C81.6177 186.942 81.6951 186.947 81.764 187.029L82.9385 188.429C83.0074 188.511 82.999 188.588 82.9132 188.66L80.1444 190.947L77.5916 192.979L85.6829 191.874C85.7671 191.858 85.8392 191.886 85.8992 191.957L87.1141 193.405Z" fill="white"/>
<path d="M78.7665 183.248C78.8629 183.191 78.9385 183.208 78.9931 183.301L79.8191 184.699C79.8736 184.791 79.8527 184.866 79.7563 184.923L75.6358 187.251L71.6019 189.74C71.5095 189.795 71.4359 189.776 71.3814 189.683L70.0818 187.484C70.032 187.399 70.0381 187.322 70.1002 187.253L74.8293 181.427L67.5189 182.884C67.4284 182.905 67.3593 182.875 67.3119 182.795L66.0978 180.739C66.0432 180.647 66.0621 180.574 66.1545 180.519L70.2775 178.181L74.3089 175.702C74.4054 175.645 74.4809 175.663 74.5355 175.755L75.4647 177.328C75.5217 177.424 75.502 177.501 75.4055 177.558L72.5849 179.224L69.5649 180.911L76.607 179.523C76.7 179.506 76.7702 179.538 76.8177 179.618L77.5297 180.824C77.5772 180.904 77.5711 180.981 77.5114 181.054L72.7557 186.904L75.9459 184.914L78.7665 183.248Z" fill="white"/>
<path d="M70.5318 166.812C70.6357 166.77 70.7077 166.799 70.7477 166.899L73.2285 173.084C73.2684 173.183 73.2364 173.254 73.1325 173.296L68.7015 174.96L64.3422 176.822C64.2426 176.862 64.1728 176.832 64.1328 176.732L61.6937 170.651C61.6538 170.551 61.6836 170.482 61.7832 170.442L62.9462 169.975C63.0501 169.934 63.1221 169.962 63.162 170.062L64.8428 174.253L66.9661 173.491L65.4052 169.6C65.3652 169.5 65.395 169.43 65.4946 169.39L66.6576 168.924C66.7615 168.882 66.8335 168.911 66.8735 169.011L68.4344 172.903L70.9992 171.776L69.2794 167.488C69.2394 167.388 69.2692 167.318 69.3689 167.278L70.5318 166.812Z" fill="white"/>
<path d="M69.7142 164.2C69.7403 164.304 69.6991 164.37 69.5904 164.397L64.9784 165.459L60.4038 166.7C60.2997 166.726 60.2346 166.687 60.2085 166.583L59.3147 163.018C59.0265 161.869 59.0592 160.915 59.413 160.158C59.7667 159.4 60.4506 158.894 61.4645 158.64C62.1299 158.473 62.7343 158.476 63.2777 158.648C63.8211 158.819 64.2854 159.145 64.6705 159.626C65.05 160.104 65.3345 160.72 65.5241 161.476L65.9343 163.113L69.0559 162.265C69.1646 162.238 69.2314 162.274 69.2563 162.373L69.7142 164.2ZM64.4304 163.504L63.9793 161.705C63.8783 161.302 63.667 160.987 63.3454 160.759C63.0226 160.528 62.5761 160.483 62.0058 160.626C61.4626 160.762 61.0954 160.996 60.9044 161.328C60.7133 161.66 60.6791 162.07 60.8017 162.559L61.2255 164.25L64.4304 163.504Z" fill="white"/>
<path d="M66.4996 148.411C66.5029 148.518 66.4486 148.573 66.3366 148.577L61.6041 148.632L56.8702 148.869C56.7629 148.873 56.7076 148.821 56.7043 148.713L56.5908 145.04C56.5542 143.855 56.7894 142.931 57.2965 142.266C57.8036 141.601 58.5795 141.253 59.6243 141.221C60.31 141.199 60.9 141.331 61.3943 141.614C61.8887 141.898 62.2727 142.315 62.5466 142.867C62.8156 143.414 62.9621 144.078 62.9862 144.857L63.0383 146.543L66.2688 146.38C66.3807 146.376 66.4383 146.426 66.4415 146.529L66.4996 148.411ZM61.4854 146.605L61.4282 144.751C61.4154 144.335 61.2761 143.983 61.0103 143.692C60.7444 143.397 60.3176 143.258 59.7299 143.276C59.1701 143.294 58.7616 143.444 58.5042 143.727C58.2468 144.011 58.1259 144.404 58.1415 144.908L58.1953 146.65L61.4854 146.605Z" fill="white"/>
<path d="M67.0336 129.116C67.1636 129.089 67.2211 129.14 67.206 129.27L66.9912 131.119C66.9804 131.212 66.9291 131.27 66.8373 131.292L64.4076 131.764L63.9836 135.414L66.2367 136.402C66.3262 136.44 66.3653 136.508 66.354 136.606L66.1432 138.42C66.1281 138.55 66.0604 138.587 65.9401 138.531L56.905 134.169C56.8207 134.127 56.7839 134.059 56.7947 133.966L57.0935 131.393C57.1037 131.305 57.1548 131.25 57.2466 131.228L67.0336 129.116ZM58.3504 132.949L62.3607 134.704L62.6627 132.104L58.3504 132.949Z" fill="white"/>
<path d="M62.1638 123.077L62.6657 121.197C62.9052 120.3 63.2111 119.606 63.5834 119.116C63.9523 118.621 64.3892 118.305 64.8939 118.169C65.3987 118.034 65.9689 118.051 66.6047 118.22C67.2269 118.386 67.7249 118.674 68.0988 119.083C68.4738 119.487 68.7079 120.004 68.8009 120.632C68.8952 121.256 68.8328 121.979 68.6137 122.799L67.61 126.56C67.5823 126.663 67.5144 126.701 67.4062 126.672L62.8613 125.35L58.2555 124.229C58.1518 124.202 58.1138 124.136 58.1415 124.032L59.8366 117.682C59.8643 117.578 59.93 117.54 60.0337 117.568L61.2443 117.891C61.3526 117.92 61.3928 117.986 61.3651 118.09L60.1899 122.492L62.1638 123.077ZM66.6014 124.204L67.1033 122.324C67.2465 121.787 67.2388 121.346 67.0802 120.999C66.9182 120.647 66.5915 120.405 66.1001 120.274C65.7844 120.189 65.5056 120.175 65.2636 120.231C65.0183 120.282 64.8085 120.417 64.6341 120.636C64.4564 120.849 64.3133 121.159 64.205 121.565L63.6887 123.499L66.6014 124.204Z" fill="white"/>
<path d="M72.3206 112.375C71.9179 113.289 71.3705 113.999 70.6784 114.505C69.9839 115.004 69.2058 115.289 68.3442 115.358C67.4801 115.421 66.5911 115.251 65.6773 114.848C64.725 114.428 63.9784 113.877 63.4375 113.195C62.8966 112.513 62.5826 111.75 62.4956 110.906C62.4062 110.056 62.5638 109.172 62.9684 108.254C63.3692 107.344 63.9114 106.634 64.595 106.125C65.2762 105.609 66.0518 105.319 66.9221 105.253C67.788 105.186 68.7036 105.365 69.6687 105.79C70.5825 106.193 71.3068 106.737 71.8416 107.421C72.3721 108.104 72.6863 108.872 72.7842 109.726C72.8779 110.578 72.7233 111.461 72.3206 112.375ZM70.8273 111.702C71.0645 111.164 71.1389 110.653 71.0507 110.171C70.96 109.682 70.7222 109.238 70.3371 108.839C69.954 108.435 69.4357 108.09 68.7823 107.802C68.1289 107.514 67.5208 107.361 66.9578 107.342C66.3906 107.322 65.8939 107.442 65.4678 107.703C65.0417 107.964 64.7082 108.368 64.4673 108.914C64.2265 109.461 64.1513 109.978 64.2419 110.467C64.3344 110.952 64.5775 111.395 64.9711 111.798C65.3666 112.197 65.8974 112.543 66.5636 112.837C67.2127 113.123 67.8176 113.272 68.3781 113.284C68.9344 113.295 69.4235 113.169 69.8453 112.906C70.2629 112.641 70.5902 112.24 70.8273 111.702Z" fill="white"/>
<path d="M77.5666 101.472C77.6665 101.523 77.6867 101.597 77.6273 101.691L76.5947 103.341C76.5328 103.44 76.4569 103.456 76.3669 103.388L72.4228 100.771L69.5547 99.099L68.1507 101.342C68.0938 101.433 68.0178 101.449 67.9229 101.389L66.8608 100.724C66.7699 100.667 66.7529 100.593 66.8098 100.502L70.7952 94.136C70.8546 94.041 70.9298 94.022 71.0208 94.079L72.0829 94.7438C72.1778 94.8033 72.1956 94.8805 72.1361 94.9754L70.7322 97.2182L73.4888 99.0677L77.5666 101.472Z" fill="white"/>
<path d="M88.3986 84.6309C88.4751 84.7127 88.4742 84.7902 88.3959 84.8636L86.1224 86.993C86.0407 87.0696 85.9615 87.067 85.885 86.9853L83.6407 84.5892C83.5673 84.5108 83.5715 84.4334 83.6532 84.3568L85.9267 82.2274C86.005 82.154 86.0809 82.1565 86.1543 82.2348L88.3986 84.6309Z" fill="url(#paint4_linear_730_648)"/>
<path d="M104.842 64.6907C104.933 64.6434 105.003 64.6675 105.052 64.7628L107.146 69.0152L109.411 73.1713C109.462 73.2707 109.443 73.344 109.352 73.3913L107.692 74.2514C107.597 74.3008 107.523 74.2758 107.472 74.1763L105.381 69.9301L103.792 67.0165L100.181 68.8882L101.652 71.8629L103.917 76.019C103.969 76.1184 103.947 76.1928 103.852 76.2422L102.192 77.1023C102.097 77.1517 102.023 77.1267 101.972 77.0273L99.8875 72.7778L97.6134 68.6188C97.564 68.5235 97.5869 68.4511 97.6822 68.4017L104.842 64.6907Z" fill="white"/>
<path d="M112.265 71.9822C112.163 72.0172 112.094 71.9818 112.058 71.876L110.599 67.3737L108.965 62.9242C108.93 62.8227 108.963 62.7545 109.065 62.7194L112.538 61.5194C113.658 61.1323 114.611 61.082 115.397 61.3686C116.182 61.6552 116.745 62.2925 117.087 63.2806C117.311 63.929 117.361 64.5313 117.237 65.0875C117.113 65.6438 116.828 66.1347 116.383 66.5601C115.94 66.9797 115.351 67.3167 114.614 67.5712L113.02 68.1221L114.135 71.1582C114.172 71.2641 114.142 71.3338 114.045 71.3673L112.265 71.9822ZM112.499 66.6578L114.252 66.0521C114.645 65.9164 114.94 65.6786 115.139 65.3384C115.342 64.9968 115.347 64.5481 115.155 63.9923C114.972 63.463 114.707 63.1176 114.36 62.9561C114.013 62.7946 113.601 62.7961 113.125 62.9607L111.478 63.5299L112.499 66.6578Z" fill="white"/>
<path d="M121.771 68.6788C121.665 68.6989 121.602 68.654 121.581 68.5439L120.784 63.8787L119.806 59.2407C119.786 59.1352 119.829 59.0725 119.934 59.0523L121.729 58.71C121.839 58.6891 121.904 58.7313 121.924 58.8367L122.622 62.5305L123.099 65.5537L126.081 57.9869C126.109 57.9103 126.166 57.8637 126.253 57.8471L128.11 57.493C128.215 57.4728 128.278 57.5155 128.298 57.6209L129.111 62.2904L130.073 66.9242C130.094 67.0342 130.052 67.0993 129.946 67.1194L128.151 67.4617C128.046 67.4818 127.983 67.4369 127.962 67.3269L127.317 63.7942L126.788 60.5742L123.805 68.1766C123.778 68.2579 123.719 68.3072 123.627 68.3247L121.771 68.6788Z" fill="white"/>
<path d="M134.933 66.2768C134.936 66.3888 134.883 66.446 134.776 66.4485L133.153 66.4861C133.045 66.4886 132.99 66.4338 132.988 66.3218L132.969 61.589L132.768 56.8534C132.766 56.7461 132.818 56.6912 132.926 56.6887L135.48 56.6295C135.578 56.6273 135.642 56.6701 135.672 56.7581L138.445 63.7308L140.746 56.6406C140.772 56.5513 140.831 56.5056 140.924 56.5034L143.311 56.4481C143.418 56.4457 143.473 56.4981 143.476 56.6054L143.501 61.345L143.695 66.0738C143.697 66.1858 143.645 66.243 143.538 66.2455L141.711 66.2878C141.599 66.2904 141.542 66.2357 141.539 66.1238L141.464 62.8486L141.467 59.3896L139.238 66.2121C139.207 66.3015 139.145 66.3473 139.052 66.3494L137.652 66.3818C137.559 66.384 137.495 66.3411 137.46 66.2533L134.679 59.2458L134.857 63.0017L134.933 66.2768Z" fill="white"/>
<path d="M153.649 67.1157C153.634 67.2268 153.573 67.2753 153.467 67.2613L146.86 66.3908C146.754 66.3768 146.708 66.3142 146.722 66.2032L147.445 61.5254L147.96 56.8133C147.974 56.7069 148.034 56.6607 148.14 56.6747L154.636 57.5306C154.742 57.5446 154.789 57.6048 154.775 57.7112L154.611 58.9535C154.596 59.0646 154.536 59.1131 154.429 59.099L149.953 58.5093L149.575 60.733L153.732 61.2807C153.839 61.2947 153.885 61.3549 153.871 61.4613L153.707 62.7036C153.693 62.8147 153.632 62.8632 153.526 62.8491L149.369 62.3014L149.093 65.0893L153.674 65.6928C153.78 65.7068 153.826 65.7671 153.812 65.8735L153.649 67.1157Z" fill="white"/>
<path d="M156.274 67.6458C156.171 67.6178 156.134 67.5497 156.163 67.4416L157.488 62.8981L158.64 58.3003C158.668 58.1967 158.734 58.1589 158.838 58.187L162.385 59.1482C163.529 59.4583 164.345 59.9526 164.833 60.6313C165.321 61.3099 165.429 62.1537 165.155 63.1626C164.976 63.8247 164.678 64.351 164.263 64.7413C163.848 65.1316 163.336 65.3774 162.729 65.4786C162.127 65.5766 161.45 65.5237 160.698 65.3198L159.069 64.8786L158.284 68.0165C158.255 68.1246 158.191 68.1652 158.092 68.1384L156.274 67.6458ZM159.462 63.375L161.253 63.8602C161.654 63.9689 162.032 63.9384 162.387 63.7688C162.747 63.6004 163.004 63.2324 163.158 62.6649C163.304 62.1244 163.279 61.6897 163.083 61.361C162.887 61.0322 162.546 60.8019 162.059 60.6701L160.377 60.2142L159.462 63.375Z" fill="white"/>
<path d="M171.758 72.5815C171.663 72.5318 171.641 72.4573 171.693 72.358L173.967 68.2071L176.083 63.9657C176.132 63.8706 176.205 63.8479 176.3 63.8977L179.556 65.601C180.607 66.1503 181.297 66.809 181.627 67.5769C181.958 68.3448 181.881 69.1919 181.396 70.1182C181.078 70.7261 180.675 71.1758 180.185 71.4675C179.695 71.7591 179.143 71.8888 178.528 71.8567C177.919 71.8226 177.269 71.625 176.579 71.2638L175.084 70.4819L173.641 73.3768C173.589 73.476 173.517 73.5018 173.426 73.4542L171.758 72.5815ZM175.792 69.0984L177.435 69.9581C177.803 70.1506 178.179 70.2024 178.563 70.1134C178.951 70.0265 179.281 69.7226 179.553 69.2016C179.813 68.7054 179.882 68.2756 179.762 67.9123C179.641 67.549 179.357 67.2505 178.911 67.0169L177.366 66.2091L175.792 69.0984Z" fill="white"/>
<path d="M187.914 82.2141C187.874 82.3408 187.802 82.366 187.696 82.2895L186.186 81.1997C186.11 81.145 186.085 81.0722 186.111 80.9812L186.884 78.6301L183.904 76.4791L181.943 77.9642C181.866 78.0235 181.787 78.0245 181.708 77.9671L180.226 76.8978C180.12 76.8213 180.121 76.7443 180.229 76.6667L188.444 70.9073C188.523 70.8545 188.6 70.8555 188.675 70.9101L190.775 72.426C190.847 72.4779 190.87 72.5494 190.845 72.6404L187.914 82.2141ZM188.804 72.7644L185.316 75.4088L187.438 76.9411L188.804 72.7644Z" fill="white"/>
<path d="M195.764 81.0591L197.16 82.415C197.826 83.0621 198.282 83.6676 198.527 84.2317C198.78 84.7956 198.842 85.331 198.714 85.8378C198.586 86.3446 198.293 86.834 197.835 87.306C197.386 87.7679 196.892 88.0622 196.352 88.1889C195.816 88.3187 195.251 88.2709 194.657 88.0452C194.067 87.8228 193.467 87.4156 192.857 86.8239L190.066 84.1121C189.989 84.0373 189.989 83.9597 190.067 83.8794L193.44 80.5583L196.666 77.0858C196.741 77.0088 196.817 77.0077 196.894 77.0825L201.609 81.6623C201.686 81.737 201.687 81.8129 201.612 81.8899L200.739 82.7887C200.661 82.869 200.584 82.8718 200.507 82.797L197.238 79.6219L195.764 81.0591ZM192.614 84.382L194.01 85.7379C194.408 86.1248 194.797 86.3336 195.177 86.3644C195.564 86.3951 195.935 86.228 196.289 85.8631C196.517 85.6288 196.665 85.3924 196.734 85.1537C196.81 84.915 196.795 84.6661 196.689 84.4069C196.589 84.1476 196.389 83.8717 196.087 83.5791L194.651 82.1841L192.614 84.382Z" fill="white"/>
<path d="M200.256 95.253C199.654 94.4563 199.3 93.6325 199.196 92.7816C199.097 91.9317 199.228 91.1137 199.587 90.3274C199.953 89.5421 200.534 88.8483 201.331 88.2462C202.161 87.6188 203.006 87.2349 203.865 87.0946C204.724 86.9543 205.543 87.0516 206.323 87.3866C207.109 87.7226 207.805 88.2908 208.41 89.0913C209.009 89.8843 209.365 90.7034 209.477 91.5486C209.596 92.3947 209.472 93.2137 209.105 94.0056C208.742 94.7946 208.14 95.5071 207.298 96.143C206.502 96.7451 205.674 97.113 204.816 97.2468C203.962 97.3778 203.138 97.2781 202.344 96.9478C201.554 96.6147 200.858 96.0497 200.256 95.253ZM201.571 94.2766C201.926 94.7457 202.335 95.0592 202.8 95.2171C203.271 95.376 203.774 95.3844 204.31 95.2424C204.849 95.1042 205.404 94.8198 205.973 94.3894C206.543 93.9589 206.973 93.5023 207.263 93.0197C207.557 92.5342 207.694 92.0418 207.674 91.5426C207.653 91.0433 207.463 90.5554 207.103 90.0788C206.743 89.6023 206.327 89.2846 205.856 89.1258C205.388 88.9707 204.882 88.9669 204.338 89.1145C203.798 89.2658 203.237 89.5609 202.656 89.9998C202.09 90.4275 201.665 90.8831 201.381 91.3667C201.101 91.8474 200.973 92.336 200.998 92.8325C201.025 93.3261 201.217 93.8075 201.571 94.2766Z" fill="white"/>
<path d="M207.206 105.11C207.112 105.172 207.038 105.154 206.984 105.056L206.044 103.352C205.988 103.25 206.011 103.176 206.114 103.13L210.318 100.955L213.172 99.2604L211.894 96.9436C211.842 96.8496 211.866 96.7756 211.964 96.7215L213.061 96.1162C213.155 96.0644 213.228 96.0855 213.28 96.1795L216.907 102.756C216.962 102.854 216.942 102.929 216.848 102.981L215.75 103.586C215.652 103.64 215.576 103.618 215.522 103.52L214.244 101.203L211.288 102.714L207.206 105.11Z" fill="white"/>
<path d="M216.67 122.929C216.561 122.955 216.494 122.917 216.469 122.812L215.723 119.788C215.696 119.679 215.737 119.612 215.845 119.585L219.033 118.798C219.137 118.773 219.203 118.814 219.229 118.923L219.975 121.947C220.001 122.052 219.962 122.117 219.858 122.142L216.67 122.929Z" fill="url(#paint5_linear_730_648)"/>
<defs>
<filter id="filter0_bii_730_648" x="26.3164" y="25.3176" width="230" height="232" filterUnits="userSpaceOnUse" color-interpolation-filters="sRGB">
<feFlood flood-opacity="0" result="BackgroundImageFix"/>
<feGaussianBlur in="BackgroundImageFix" stdDeviation="7.5"/>
<feComposite in2="SourceAlpha" operator="in" result="effect1_backgroundBlur_730_648"/>
<feBlend mode="normal" in="SourceGraphic" in2="effect1_backgroundBlur_730_648" result="shape"/>
<feColorMatrix in="SourceAlpha" type="matrix" values="0 0 0 0 0 0 0 0 0 0 0 0 0 0 0 0 0 0 127 0" result="hardAlpha"/>
<feOffset dx="8" dy="-16"/>
<feGaussianBlur stdDeviation="9.5"/>
<feComposite in2="hardAlpha" operator="arithmetic" k2="-1" k3="1"/>
<feColorMatrix type="matrix" values="0 0 0 0 0.2375 0 0 0 0 0.2375 0 0 0 0 0.2375 0 0 0 0.15 0"/>
<feBlend mode="normal" in2="shape" result="effect2_innerShadow_730_648"/>
<feColorMatrix in="SourceAlpha" type="matrix" values="0 0 0 0 0 0 0 0 0 0 0 0 0 0 0 0 0 0 127 0" result="hardAlpha"/>
<feOffset dx="-8" dy="16"/>
<feGaussianBlur stdDeviation="10"/>
<feComposite in2="hardAlpha" operator="arithmetic" k2="-1" k3="1"/>
<feColorMatrix type="matrix" values="0 0 0 0 1 0 0 0 0 1 0 0 0 0 1 0 0 0 0.15 0"/>
<feBlend mode="normal" in2="effect2_innerShadow_730_648" result="effect3_innerShadow_730_648"/>
</filter>
<filter id="filter1_bii_730_648" x="64.3164" y="63.3179" width="154" height="156" filterUnits="userSpaceOnUse" color-interpolation-filters="sRGB">
<feFlood flood-opacity="0" result="BackgroundImageFix"/>
<feGaussianBlur in="BackgroundImageFix" stdDeviation="7.5"/>
<feComposite in2="SourceAlpha" operator="in" result="effect1_backgroundBlur_730_648"/>
<feBlend mode="normal" in="SourceGraphic" in2="effect1_backgroundBlur_730_648" result="shape"/>
<feColorMatrix in="SourceAlpha" type="matrix" values="0 0 0 0 0 0 0 0 0 0 0 0 0 0 0 0 0 0 127 0" result="hardAlpha"/>
<feOffset dx="8" dy="-16"/>
<feGaussianBlur stdDeviation="9.5"/>
<feComposite in2="hardAlpha" operator="arithmetic" k2="-1" k3="1"/>
<feColorMatrix type="matrix" values="0 0 0 0 0.2375 0 0 0 0 0.2375 0 0 0 0 0.2375 0 0 0 0.15 0"/>
<feBlend mode="normal" in2="shape" result="effect2_innerShadow_730_648"/>
<feColorMatrix in="SourceAlpha" type="matrix" values="0 0 0 0 0 0 0 0 0 0 0 0 0 0 0 0 0 0 127 0" result="hardAlpha"/>
<feOffset dx="-8" dy="16"/>
<feGaussianBlur stdDeviation="10"/>
<feComposite in2="hardAlpha" operator="arithmetic" k2="-1" k3="1"/>
<feColorMatrix type="matrix" values="0 0 0 0 1 0 0 0 0 1 0 0 0 0 1 0 0 0 0.15 0"/>
<feBlend mode="normal" in2="effect2_innerShadow_730_648" result="effect3_innerShadow_730_648"/>
</filter>
<linearGradient id="paint0_linear_730_648" x1="97.7026" y1="352.311" x2="-69.2491" y2="189.745" gradientUnits="userSpaceOnUse">
<stop stop-color="white" stop-opacity="0.8"/>
<stop offset="1" stop-color="white" stop-opacity="0.3"/>
</linearGradient>
<linearGradient id="paint1_linear_730_648" x1="137.128" y1="-10.7423" x2="297.074" y2="140.606" gradientUnits="userSpaceOnUse">
<stop stop-color="white" stop-opacity="0.8"/>
<stop offset="1" stop-color="white" stop-opacity="0.3"/>
</linearGradient>
<linearGradient id="paint2_linear_730_648" x1="207.278" y1="208.727" x2="70.7605" y2="207.255" gradientUnits="userSpaceOnUse">
<stop stop-color="white" stop-opacity="0.8"/>
<stop offset="1" stop-color="white" stop-opacity="0.3"/>
</linearGradient>
<linearGradient id="paint3_linear_730_648" x1="116.07" y1="233.758" x2="109.483" y2="231.563" gradientUnits="userSpaceOnUse">
<stop stop-color="#E17A0A"/>
<stop offset="1" stop-color="#EE9A1B"/>
</linearGradient>
<linearGradient id="paint4_linear_730_648" x1="72.5853" y1="74.5518" x2="77.7078" y2="69.8654" gradientUnits="userSpaceOnUse">
<stop stop-color="#E17A0A"/>
<stop offset="1" stop-color="#EE9A1B"/>
</linearGradient>
<linearGradient id="paint5_linear_730_648" x1="233.194" y1="114.062" x2="234.778" y2="120.822" gradientUnits="userSpaceOnUse">
<stop stop-color="#E17A0A"/>
<stop offset="1" stop-color="#EE9A1B"/>
</linearGradient>
</defs>
</svg>
