<svg width="29" height="29" viewBox="0 0 29 29" fill="none" xmlns="http://www.w3.org/2000/svg">
<path d="M0.611328 28.7677C1.00215 27.5953 1.37031 26.4964 1.73848 25.3976C2.10664 24.3101 2.43516 23.2056 2.8543 22.1351C3.06953 21.5914 3.00156 21.1835 2.72969 20.6738C1.2457 17.921 0.803906 14.9701 1.31934 11.9002C1.75547 9.30035 2.85996 7.00074 4.64414 5.04664C7.58379 1.83512 11.2541 0.294492 15.5928 0.475742C18.7703 0.606016 21.5797 1.76715 23.9756 3.86852C26.2072 5.82262 27.6629 8.2525 28.3369 11.1412C28.8807 13.4691 28.8184 15.7857 28.15 18.0796C27.3004 20.9853 25.6748 23.3812 23.2563 25.205C19.8975 27.7425 16.1309 28.5298 12.0244 27.7312C10.7897 27.4933 9.61153 27.0515 8.50137 26.4511C8.32012 26.3548 8.16719 26.3322 7.96895 26.4002C5.86192 27.0798 3.74922 27.7539 1.64219 28.4279C1.325 28.5298 1.00215 28.6375 0.611328 28.7677ZM4.19668 25.2164C4.30996 25.188 4.36094 25.1767 4.41192 25.1597C5.73164 24.7406 7.05137 24.3158 8.37676 23.908C8.50137 23.8683 8.67129 23.9023 8.79024 23.9589C9.36231 24.2421 9.91172 24.582 10.5008 24.8312C12.925 25.8564 15.4229 26.0207 17.949 25.3183C20.9623 24.4744 23.2733 22.6789 24.8535 19.9658C26.2072 17.6435 26.6717 15.1343 26.2526 12.4949C25.7201 9.13609 23.9983 6.49664 21.1492 4.62183C18.6797 3.00191 15.9609 2.4525 13.0609 2.91129C10.5631 3.30777 8.42774 4.44625 6.66621 6.27008C5.15391 7.83336 4.14004 9.67984 3.69824 11.8039C3.06953 14.8455 3.53399 17.7228 5.22188 20.3453C5.56172 20.872 5.55039 21.2742 5.34649 21.8123C4.93301 22.9168 4.5875 24.0439 4.19668 25.2164Z" fill="white"/>
<path d="M22.0502 18.2271C22.0332 19.3202 21.5178 20.1529 20.4756 20.6739C19.4504 21.1837 18.4082 21.314 17.3377 20.8948C16.3748 20.5154 15.4006 20.1472 14.4717 19.6884C13.2483 19.0823 12.2457 18.1761 11.3282 17.1736C10.3143 16.0634 9.45335 14.8286 8.74534 13.5089C8.24123 12.5743 7.93537 11.5831 8.04299 10.4956C8.15627 9.34016 8.69436 8.41692 9.60061 7.72024C9.78186 7.5843 10.0537 7.522 10.286 7.49934C10.5862 7.47668 10.8864 7.522 11.1866 7.54465C11.4358 7.56731 11.5717 7.74289 11.6567 7.9468C11.8776 8.49055 12.0758 9.0343 12.2854 9.58371C12.427 9.95188 12.5346 10.337 12.7045 10.6939C12.9141 11.1357 12.7838 11.5038 12.5119 11.8437C12.2797 12.1325 12.0362 12.4101 11.7699 12.6593C11.5491 12.8689 11.5094 13.0841 11.6567 13.339C12.308 14.5001 13.101 15.5423 14.1489 16.3863C14.8399 16.9413 15.6045 17.3548 16.3975 17.74C16.6297 17.8532 16.8563 17.8363 17.0375 17.6267C17.4284 17.1792 17.8248 16.7374 18.21 16.2843C18.4592 15.9954 18.5838 15.9388 18.918 16.1087C19.8866 16.5958 20.8438 17.0999 21.8067 17.604C22.0332 17.7286 22.0899 17.9325 22.0502 18.2271Z" fill="white"/>
</svg>
