<svg width="1280" height="206" viewBox="0 0 1280 206" fill="none" xmlns="http://www.w3.org/2000/svg">
<mask id="mask0_762_721" style="mask-type:alpha" maskUnits="userSpaceOnUse" x="0" y="0" width="1280" height="196">
<rect width="1280" height="196" rx="40" fill="#F0F3F5"/>
</mask>
<g mask="url(#mask0_762_721)">
<path d="M233 224.5C237.333 195.666 279.3 139.9 412.5 147.5C545.7 155.1 651 166.667 687 171.5C725 176.602 829.9 186.4 979.5 97.9998C1129.1 9.59979 1295.83 106 1342 154" stroke="#263242" stroke-dasharray="4 4"/>
</g>
<rect x="237" y="186" width="20" height="20" rx="6" fill="url(#paint0_linear_762_721)"/>
<rect x="244" y="193" width="6" height="6" rx="3" fill="white"/>
<rect x="689" y="162" width="20" height="20" rx="6" fill="url(#paint1_linear_762_721)"/>
<rect x="696" y="169" width="6" height="6" rx="3" fill="white"/>
<rect x="1103" y="52" width="20" height="20" rx="6" fill="url(#paint2_linear_762_721)"/>
<rect x="1110" y="59" width="6" height="6" rx="3" fill="white"/>
<defs>
<linearGradient id="paint0_linear_762_721" x1="233.571" y1="183.143" x2="261.242" y2="184.83" gradientUnits="userSpaceOnUse">
<stop stop-color="#E17A0A"/>
<stop offset="1" stop-color="#EE9A1B"/>
</linearGradient>
<linearGradient id="paint1_linear_762_721" x1="685.571" y1="159.143" x2="713.242" y2="160.83" gradientUnits="userSpaceOnUse">
<stop stop-color="#E17A0A"/>
<stop offset="1" stop-color="#EE9A1B"/>
</linearGradient>
<linearGradient id="paint2_linear_762_721" x1="1099.57" y1="49.1429" x2="1127.24" y2="50.8299" gradientUnits="userSpaceOnUse">
<stop stop-color="#E17A0A"/>
<stop offset="1" stop-color="#EE9A1B"/>
</linearGradient>
</defs>
</svg>
